<?xml version="1.0" encoding="UTF-8" standalone="no"?>
<svg
   xmlns:dc="http://purl.org/dc/elements/1.1/"
   xmlns:cc="http://creativecommons.org/ns#"
   xmlns:rdf="http://www.w3.org/1999/02/22-rdf-syntax-ns#"
   xmlns:svg="http://www.w3.org/2000/svg"
   xmlns="http://www.w3.org/2000/svg"
   id="svg5243"
   version="1.1"
   viewBox="0 0 4.2333332 4.2333335"
   height="16"
   width="16">
  <defs
     id="defs5237" />
  <metadata
     id="metadata5240">
    <rdf:RDF>
      <cc:Work
         rdf:about="">
        <dc:format>image/svg+xml</dc:format>
        <dc:type
           rdf:resource="http://purl.org/dc/dcmitype/StillImage" />
        <dc:title></dc:title>
      </cc:Work>
    </rdf:RDF>
  </metadata>
  <g
     transform="translate(0,-292.76665)"
     id="layer1">
    <path
       style="fill:#ffffff;fill-rule:evenodd;stroke:#000000;stroke-width:0.26458341px;stroke-linecap:round;stroke-linejoin:round;stroke-opacity:1"
       d="m 3.1737183,296.21828 c 0.067644,0.0335 0.1433872,0.0467 0.2183366,0.0557 0.112452,0.0135 0.2286708,0.018 0.3368624,-0.0155 0.044048,-0.0136 0.086177,-0.0335 0.1247638,-0.0587 0.093776,-0.16132 0.1624316,-0.33722 0.2027411,-0.51941 0.070772,-0.31988 0.053268,-0.65577 -0.024953,-0.97391 -0.072525,-0.29497 -0.1979714,-0.57891 -0.3836488,-0.81931 -0.241765,-0.31302 -0.5845497,-0.54629 -0.9638004,-0.65854 -0.4230344,-0.12521 -0.8853485,-0.0993 -1.3006628,0.0495 -0.3824828,0.13706 -0.7317859,0.38159 -0.96068138,0.71728 -0.23589875,0.34596 -0.33488609,0.78263 -0.27136123,1.19651 0.0377734,0.2461 0.13095261,0.48281 0.26512304,0.69255 0.11838707,0.18507 0.26982678,0.35064 0.45226884,0.47304 0.25049713,0.16806 0.55314623,0.24981 0.85463213,0.25971 0.238337,0.008 0.4800276,-0.0285 0.6986774,-0.12367 0.1503905,-0.0655 0.2882511,-0.15792 0.4117206,-0.26589 0.060657,-0.053 0.1179902,-0.10989 0.1715503,-0.17009 0.038237,0.0689 0.097819,0.12576 0.1684314,0.16073 z"
       id="path5816" />
    <path
       id="path4488"
       d="m 3.0052871,296.05751 c 0.1291112,-0.16097 0.2205929,-0.35193 0.2651231,-0.55342 0.048915,-0.22133 0.041103,-0.45376 -0.012476,-0.67401 -0.061786,-0.25398 -0.1850681,-0.49379 -0.361815,-0.68636 -0.2404748,-0.262 -0.5863345,-0.43275 -0.9419668,-0.43285 -0.3327173,-10e-5 -0.6570533,0.14806 -0.8982995,0.37719 -0.19549615,0.18568 -0.34274639,0.43097 -0.37429142,0.69874 -0.0298627,0.25349 0.0468191,0.5145 0.19338393,0.72347 0.12910969,0.18408 0.31287769,0.33079 0.52400799,0.40811 0.1598377,0.0585 0.3345833,0.0771 0.5026466,0.05 0.1680633,-0.027 0.3289687,-0.0998 0.4580348,-0.21082 0.2176814,-0.18718 0.3354211,-0.47987 0.3243859,-0.76675 -0.0045,-0.11702 -0.029264,-0.23367 -0.077109,-0.34056 -0.047845,-0.10689 -0.1190658,-0.20381 -0.2098483,-0.27779 -0.1482896,-0.12084 -0.3457881,-0.17581 -0.5364844,-0.16078 -0.1509148,0.0119 -0.2981551,0.0662 -0.4210779,0.15459 -0.1154139,0.083 -0.2101814,0.19729 -0.2588849,0.33082 -0.054667,0.14988 -0.048391,0.3207 0.015595,0.46685 0.05417,0.12372 0.1493062,0.22972 0.2682422,0.29372 0.1411384,0.0759 0.3157402,0.0899 0.4647452,0.0309 0.07744,-0.0307 0.1473924,-0.0802 0.2016505,-0.14343 0.054258,-0.0632 0.092682,-0.13998 0.110259,-0.2214 0.023171,-0.10734 0.00888,-0.2238 -0.046786,-0.31845 -0.057434,-0.0977 -0.1592684,-0.16902 -0.2713613,-0.1855 -0.096979,-0.0143 -0.1989529,0.0126 -0.2775995,0.0711 -0.069617,0.0518 -0.1217332,0.13015 -0.131002,0.21642 -0.0034,0.0317 -0.00106,0.0641 0.00819,0.0946 0.00924,0.0305 0.025478,0.059 0.047957,0.0816 0.040897,0.0411 0.1012859,0.0604 0.1590738,0.0556 0.019373,-0.002 0.038667,-0.006 0.056351,-0.0138 0.017684,-0.008 0.03373,-0.0202 0.045065,-0.036 0.00944,-0.0131 0.015477,-0.0287 0.017368,-0.0448 0.00189,-0.0161 -3.669e-4,-0.0326 -0.0065,-0.0476"
       style="fill:none;fill-rule:evenodd;stroke:#000000;stroke-width:0.26458341px;stroke-linecap:round;stroke-linejoin:round;stroke-opacity:1" />
  </g>
</svg>
