<?xml version="1.0" encoding="UTF-8" standalone="no"?>
<!-- Created with Inkscape (http://www.inkscape.org/) -->

<svg
   xmlns:dc="http://purl.org/dc/elements/1.1/"
   xmlns:cc="http://creativecommons.org/ns#"
   xmlns:rdf="http://www.w3.org/1999/02/22-rdf-syntax-ns#"
   xmlns:svg="http://www.w3.org/2000/svg"
   xmlns="http://www.w3.org/2000/svg"
   xmlns:xlink="http://www.w3.org/1999/xlink"
   xmlns:sodipodi="http://sodipodi.sourceforge.net/DTD/sodipodi-0.dtd"
   xmlns:inkscape="http://www.inkscape.org/namespaces/inkscape"
   width="273.35776mm"
   height="241.7581mm"
   viewBox="0 0 968.59048 856.62323"
   id="svg2"
   version="1.1"
   inkscape:version="0.92.1 r15371"
   sodipodi:docname="2_mapab.svg"
   inkscape:export-filename="C:\Disk Google\PedF\DP\obrázky\2_mapa.png"
   inkscape:export-xdpi="300.03394"
   inkscape:export-ydpi="300.03394">
  <defs
     id="defs4">
    <inkscape:path-effect
       is_visible="true"
       id="path-effect4393"
       effect="spiro" />
    <inkscape:path-effect
       effect="spiro"
       id="path-effect4389"
       is_visible="true" />
    <inkscape:path-effect
       effect="spiro"
       id="path-effect4335"
       is_visible="true" />
    <inkscape:path-effect
       effect="spiro"
       id="path-effect4331"
       is_visible="true" />
    <inkscape:path-effect
       effect="spiro"
       id="path-effect4327"
       is_visible="true" />
    <inkscape:path-effect
       effect="spiro"
       id="path-effect4323"
       is_visible="true" />
    <inkscape:path-effect
       effect="spiro"
       id="path-effect4319"
       is_visible="true" />
    <inkscape:path-effect
       effect="spiro"
       id="path-effect4315"
       is_visible="true" />
    <inkscape:path-effect
       effect="spiro"
       id="path-effect4284"
       is_visible="true" />
    <inkscape:path-effect
       effect="spiro"
       id="path-effect4245"
       is_visible="true" />
  </defs>
  <sodipodi:namedview
     id="base"
     pagecolor="#ffffff"
     bordercolor="#666666"
     borderopacity="1.0"
     inkscape:pageopacity="1"
     inkscape:pageshadow="2"
     inkscape:zoom="0.49497475"
     inkscape:cx="-38.667488"
     inkscape:cy="551.2194"
     inkscape:document-units="px"
     inkscape:current-layer="layer2"
     showgrid="false"
     showborder="true"
     fit-margin-top="0"
     fit-margin-left="0"
     fit-margin-right="0"
     fit-margin-bottom="7.5"
     inkscape:window-width="1920"
     inkscape:window-height="1017"
     inkscape:window-x="-8"
     inkscape:window-y="32"
     inkscape:window-maximized="1"
     inkscape:object-nodes="true"
     inkscape:snap-global="true"
     inkscape:object-paths="true"
     inkscape:showpageshadow="false"
     borderlayer="true" />
  <metadata
     id="metadata7">
    <rdf:RDF>
      <cc:Work
         rdf:about="">
        <dc:format>image/svg+xml</dc:format>
        <dc:type
           rdf:resource="http://purl.org/dc/dcmitype/StillImage" />
        <dc:title></dc:title>
      </cc:Work>
    </rdf:RDF>
  </metadata>
  <g
     inkscape:groupmode="layer"
     id="layer2"
     inkscape:label="podmapa"
     style="display:inline"
     transform="translate(-559.96049,-184.41104)" />
  <g
     inkscape:groupmode="layer"
     id="layer3"
     inkscape:label="silnitz"
     transform="translate(-559.96049,-184.41104)">
    <g
       id="g4337"
       style="fill-opacity:1;stroke:#e6e6e6">
      <path
         inkscape:connector-curvature="0"
         inkscape:original-d="m 1032.1234,931.0025 3.5355,-7.57614 -0.7576,-7.07107 4.2931,-5.3033 6.0609,-6.81853 2.778,-5.55584 -3.0305,-9.09137 -7.0711,-8.08123 -8.3337,-7.57614 -4.5457,-9.59645 -2.0203,-14.14213 0.2525,-11.11168 -2.7779,-14.39468 -3.0304,-8.33375 -4.0407,-6.06092 -6.8185,-12.37437 -3.7881,-10.10152 1.2627,-7.07107 -5.55581,-11.86929 -4.04061,-14.39468 -3.53553,-11.61675 -6.06092,-9.09138 -7.57614,-8.33375 -6.56599,-4.79823"
         inkscape:path-effect="#path-effect4315"
         id="path4313"
         d="m 1032.1234,931.0025 3.5355,-7.57614 -0.7576,-7.07107 c 1.396,-1.79578 2.8274,-3.56401 4.2931,-5.3033 1.9599,-2.32563 3.9811,-4.59953 6.0609,-6.81853 l 2.778,-5.55584 -3.0305,-9.09137 -7.0711,-8.08123 -8.3337,-7.57614 -4.5457,-9.59645 -2.0203,-14.14213 0.2525,-11.11168 -2.7779,-14.39468 -3.0304,-8.33375 -4.0407,-6.06092 -6.8185,-12.37437 -3.7881,-10.10152 1.2627,-7.07107 -5.55581,-11.86929 c -1.28913,-4.81418 -2.63613,-9.61287 -4.04061,-14.39468 -1.14067,-3.88363 -2.31926,-7.75613 -3.53553,-11.61675 l -6.06092,-9.09138 -7.57614,-8.33375 -6.56599,-4.79823"
         style="fill:none;fill-opacity:1;fill-rule:evenodd;stroke:#e6e6e6;stroke-width:2;stroke-linecap:butt;stroke-linejoin:miter;stroke-miterlimit:4;stroke-dasharray:none;stroke-opacity:1" />
      <path
         inkscape:connector-curvature="0"
         inkscape:original-d="m 1027.3251,931.25504 -0.2525,-8.83884 -5.5558,-2.77792 -6.566,-1.26269 -2.5254,-7.82868 -4.2932,-13.63706 -8.83879,-1.01015 -8.5863,-4.54569 -2.52538,2.77792 -13.13198,-15.15229 -22.72844,-19.44543 -15.15229,-13.13199 -7.07106,-10.10152 9.84898,-16.41498 7.07107,-6.81853 10.35407,-1.26269 14.39467,1.26269 6.31345,-2.02031 18.43529,-8.83883 17.42511,-7.82868 34.0927,-11.86929 20.7081,-8.83884 17.9302,-2.27284 11.6168,3.53553"
         inkscape:path-effect="#path-effect4319"
         id="path4317"
         d="m 1027.3251,931.25504 -0.2525,-8.83884 -5.5558,-2.77792 -6.566,-1.26269 c -0.8485,-2.60739 -1.6903,-5.21696 -2.5254,-7.82868 -1.4514,-4.53925 -2.8825,-9.085 -4.2932,-13.63706 l -8.83879,-1.01015 -8.5863,-4.54569 -2.52538,2.77792 -13.13198,-15.15229 c -7.60087,-6.45284 -15.17709,-12.93471 -22.72844,-19.44543 -5.06196,-4.36439 -10.11275,-8.74174 -15.15229,-13.13199 l -7.07106,-10.10152 9.84898,-16.41498 7.07107,-6.81853 10.35407,-1.26269 14.39467,1.26269 6.31345,-2.02031 c 6.10695,-3.02497 12.25272,-5.97157 18.43529,-8.83883 5.77681,-2.67908 11.58571,-5.28889 17.42511,-7.82868 l 34.0927,-11.86929 20.7081,-8.83884 17.9302,-2.27284 11.6168,3.53553"
         style="fill:none;fill-opacity:1;fill-rule:evenodd;stroke:#e6e6e6;stroke-width:2;stroke-linecap:butt;stroke-linejoin:miter;stroke-miterlimit:4;stroke-dasharray:none;stroke-opacity:1" />
      <path
         inkscape:connector-curvature="0"
         inkscape:original-d="m 894.49008,909.03168 8.33376,-16.66752 11.36421,-21.97081 9.09138,-19.95052 6.81853,-14.14213 -9.09138,-7.32361 -5.80837,-5.05076 -9.84899,-2.52538 -13.63706,-6.81853 -10.85914,-7.82868 -11.86929,-8.5863 -4.79823,-5.80838 -8.33376,-3.03046"
         inkscape:path-effect="#path-effect4323"
         id="path4321"
         d="m 894.49008,909.03168 c 2.68568,-5.60132 5.46411,-11.15818 8.33376,-16.66752 3.80919,-7.31314 7.78019,-14.54472 11.36421,-21.97081 3.17658,-6.58188 6.04477,-13.30748 9.09138,-19.95052 2.18175,-4.75724 4.45516,-9.47245 6.81853,-14.14213 -3.0853,-2.37207 -6.11679,-4.81411 -9.09138,-7.32361 -1.96115,-1.65452 -3.89756,-3.33835 -5.80837,-5.05076 l -9.84899,-2.52538 -13.63706,-6.81853 c -3.62174,-2.60675 -7.24145,-5.21631 -10.85914,-7.82868 -3.95886,-2.85874 -7.91529,-5.72084 -11.86929,-8.5863 l -4.79823,-5.80838 -8.33376,-3.03046"
         style="fill:none;fill-opacity:1;fill-rule:evenodd;stroke:#e6e6e6;stroke-width:2;stroke-linecap:butt;stroke-linejoin:miter;stroke-miterlimit:4;stroke-dasharray:none;stroke-opacity:1" />
      <path
         inkscape:connector-curvature="0"
         inkscape:original-d="m 1008.1322,896.90985 8.3338,-2.27284 7.0711,0.75761 4.7982,4.29315 6.566,1.01015 11.3642,-2.27284 1.0102,-7.32361 4.2931,-5.55584 8.5863,-3.03045 6.3135,-4.29315 h 9.8489 l 6.061,-3.78807 6.8185,0.50507 7.8287,3.283"
         inkscape:path-effect="#path-effect4327"
         id="path4325"
         d="m 1008.1322,896.90985 8.3338,-2.27284 7.0711,0.75761 4.7982,4.29315 6.566,1.01015 11.3642,-2.27284 1.0102,-7.32361 4.2931,-5.55584 8.5863,-3.03045 6.3135,-4.29315 h 9.8489 l 6.061,-3.78807 6.8185,0.50507 7.8287,3.283"
         style="fill:none;fill-opacity:1;fill-rule:evenodd;stroke:#e6e6e6;stroke-width:2;stroke-linecap:butt;stroke-linejoin:miter;stroke-miterlimit:4;stroke-dasharray:none;stroke-opacity:1" />
      <path
         inkscape:connector-curvature="0"
         inkscape:original-d="m 1004.0916,780.74231 11.8693,-10.85914 5.0508,-8.5863 2.0203,-9.84899 4.0406,-9.84898 v 0"
         inkscape:path-effect="#path-effect4331"
         id="path4329"
         d="m 1004.0916,780.74231 11.8693,-10.85914 5.0508,-8.5863 2.0203,-9.84899 4.0406,-9.84898 v 0"
         style="fill:none;fill-opacity:1;fill-rule:evenodd;stroke:#e6e6e6;stroke-width:2;stroke-linecap:butt;stroke-linejoin:miter;stroke-miterlimit:4;stroke-dasharray:none;stroke-opacity:1" />
      <path
         inkscape:connector-curvature="0"
         inkscape:original-d="m 995.22549,756.98424 5.58311,0.0195 5.8084,4.54569 h 7.5762 l 6.8185,-0.25254 4.8679,2.35643 7.2329,9.08652 4.8192,4.21442 14.5824,3.64331"
         inkscape:path-effect="#path-effect4335"
         id="path4333"
         d="m 995.22549,756.98424 5.58311,0.0195 5.8084,4.54569 c 2.5251,0.0492 5.0511,0.0492 7.5762,0 2.2741,-0.0443 4.5474,-0.1285 6.8185,-0.25254 l 4.8679,2.35643 7.2329,9.08652 4.8192,4.21442 14.5824,3.64331"
         style="fill:none;fill-opacity:1;fill-rule:evenodd;stroke:#e6e6e6;stroke-width:2;stroke-linecap:butt;stroke-linejoin:miter;stroke-miterlimit:4;stroke-dasharray:none;stroke-opacity:1" />
    </g>
  </g>
  <g
     inkscape:label="Layer 1"
     inkscape:groupmode="layer"
     id="layer1"
     transform="translate(27.992265,-170.59215)">
    <text
       xml:space="preserve"
       style="font-style:normal;font-weight:normal;line-height:0%;font-family:sans-serif;letter-spacing:0px;word-spacing:0px;fill:#000000;fill-opacity:1;stroke:none;stroke-width:1px;stroke-linecap:butt;stroke-linejoin:miter;stroke-opacity:1"
       x="408.34543"
       y="719.45154"
       id="text4172"><tspan
         sodipodi:role="line"
         id="tspan4174"
         x="408.34543"
         y="719.45154"
         style="font-style:normal;font-variant:normal;font-weight:normal;font-stretch:normal;font-size:25.62470436px;line-height:1.25;font-family:'Gentium Plus Compact';-inkscape-font-specification:'Gentium Plus Compact'">Broumy</tspan></text>
    <text
       id="text4176"
       y="755.31195"
       x="456.32767"
       style="font-style:normal;font-weight:normal;line-height:0%;font-family:sans-serif;letter-spacing:0px;word-spacing:0px;fill:#000000;fill-opacity:1;stroke:none;stroke-width:1px;stroke-linecap:butt;stroke-linejoin:miter;stroke-opacity:1"
       xml:space="preserve"><tspan
         style="font-style:normal;font-variant:normal;font-weight:normal;font-stretch:normal;font-size:25.62470436px;line-height:1.25;font-family:'Gentium Plus Compact';-inkscape-font-specification:'Gentium Plus Compact'"
         y="755.31195"
         x="456.32767"
         id="tspan4178"
         sodipodi:role="line">Kublov</tspan></text>
    <text
       xml:space="preserve"
       style="font-style:normal;font-weight:normal;line-height:0%;font-family:sans-serif;letter-spacing:0px;word-spacing:0px;fill:#000000;fill-opacity:1;stroke:none;stroke-width:1px;stroke-linecap:butt;stroke-linejoin:miter;stroke-opacity:1"
       x="332.58398"
       y="886.12671"
       id="text4180"><tspan
         sodipodi:role="line"
         id="tspan4182"
         x="332.58398"
         y="886.12671"
         style="font-style:normal;font-variant:normal;font-weight:normal;font-stretch:normal;font-size:25.62470436px;line-height:1.25;font-family:'Gentium Plus Compact';-inkscape-font-specification:'Gentium Plus Compact'">Bzová</tspan></text>
    <text
       id="text4184"
       y="970.97949"
       x="429.05353"
       style="font-style:normal;font-weight:normal;line-height:0%;font-family:sans-serif;letter-spacing:0px;word-spacing:0px;fill:#000000;fill-opacity:1;stroke:none;stroke-width:1px;stroke-linecap:butt;stroke-linejoin:miter;stroke-opacity:1"
       xml:space="preserve"><tspan
         style="font-style:normal;font-variant:normal;font-weight:normal;font-stretch:normal;font-size:25.62470436px;line-height:1.25;font-family:'Gentium Plus Compact';-inkscape-font-specification:'Gentium Plus Compact'"
         y="970.97949"
         x="429.05353"
         id="tspan4186"
         sodipodi:role="line">Žebrák</tspan></text>
    <text
       xml:space="preserve"
       style="font-style:normal;font-weight:normal;line-height:0%;font-family:sans-serif;letter-spacing:0px;word-spacing:0px;fill:#000000;fill-opacity:1;stroke:none;stroke-width:1px;stroke-linecap:butt;stroke-linejoin:miter;stroke-opacity:1"
       x="250.4821"
       y="1000.2652"
       id="text4199"><tspan
         sodipodi:role="line"
         id="tspan4201"
         x="250.4821"
         y="1000.2652"
         style="font-style:normal;font-variant:normal;font-weight:normal;font-stretch:normal;font-size:25.62470436px;line-height:1.25;font-family:'Gentium Plus Compact';-inkscape-font-specification:'Gentium Plus Compact'">Zbiroh</tspan></text>
    <text
       id="text4203"
       y="639.19385"
       x="638.51782"
       style="font-style:normal;font-weight:normal;line-height:0%;font-family:sans-serif;letter-spacing:0px;word-spacing:0px;fill:#000000;fill-opacity:1;stroke:none;stroke-width:1px;stroke-linecap:butt;stroke-linejoin:miter;stroke-opacity:1"
       xml:space="preserve"><tspan
         style="font-style:normal;font-variant:normal;font-weight:normal;font-stretch:normal;font-size:25.62470436px;line-height:1.25;font-family:'Gentium Plus Compact';-inkscape-font-specification:'Gentium Plus Compact'"
         y="639.19385"
         x="638.51782"
         id="tspan4205"
         sodipodi:role="line">Nižbor</tspan></text>
    <text
       xml:space="preserve"
       style="font-style:normal;font-weight:normal;line-height:0%;font-family:sans-serif;letter-spacing:0px;word-spacing:0px;fill:#000000;fill-opacity:1;stroke:none;stroke-width:1px;stroke-linecap:butt;stroke-linejoin:miter;stroke-opacity:1"
       x="864.05359"
       y="398.12238"
       id="text4207"><tspan
         sodipodi:role="line"
         id="tspan4209"
         x="864.05359"
         y="398.12238"
         style="font-style:normal;font-variant:normal;font-weight:normal;font-stretch:normal;font-size:25.62470436px;line-height:1.25;font-family:'Gentium Plus Compact';-inkscape-font-specification:'Gentium Plus Compact'">Unhošť</tspan></text>
    <text
       id="text4215"
       y="858.14703"
       x="455.45599"
       style="font-style:normal;font-weight:normal;line-height:0%;font-family:sans-serif;letter-spacing:0px;word-spacing:0px;fill:#000000;fill-opacity:1;stroke:none;stroke-width:1px;stroke-linecap:butt;stroke-linejoin:miter;stroke-opacity:1"
       xml:space="preserve"><tspan
         style="font-style:normal;font-variant:normal;font-weight:normal;font-stretch:normal;font-size:25.62470436px;line-height:1.25;font-family:'Gentium Plus Compact';-inkscape-font-specification:'Gentium Plus Compact'"
         y="858.14703"
         x="455.45599"
         id="tspan4217"
         sodipodi:role="line">Březová</tspan></text>
    <text
       xml:space="preserve"
       style="font-style:normal;font-weight:normal;line-height:0%;font-family:sans-serif;letter-spacing:0px;word-spacing:0px;fill:#000000;fill-opacity:1;stroke:none;stroke-width:1px;stroke-linecap:butt;stroke-linejoin:miter;stroke-opacity:1"
       x="277.90573"
       y="842.43768"
       id="text4219"><tspan
         sodipodi:role="line"
         id="tspan4221"
         x="277.90573"
         y="842.43768"
         style="font-style:normal;font-variant:normal;font-weight:normal;font-stretch:normal;font-size:25.62470436px;line-height:1.25;font-family:'Gentium Plus Compact';-inkscape-font-specification:'Gentium Plus Compact'">Výrovka</tspan></text>
    <circle
       style="color:#000000;clip-rule:nonzero;display:inline;overflow:visible;visibility:visible;opacity:1;isolation:auto;mix-blend-mode:normal;color-interpolation:sRGB;color-interpolation-filters:linearRGB;solid-color:#000000;solid-opacity:1;fill:#000000;fill-opacity:1;fill-rule:nonzero;stroke:none;stroke-width:5.00000048;stroke-linecap:round;stroke-linejoin:round;stroke-miterlimit:4;stroke-dasharray:none;stroke-dashoffset:0;stroke-opacity:1;marker:none;marker-start:none;marker-mid:none;marker-end:none;paint-order:normal;color-rendering:auto;image-rendering:auto;shape-rendering:auto;text-rendering:auto;enable-background:accumulate"
       id="path4223"
       cx="397.70361"
       cy="718.94116"
       r="5.8083768" />
    <use
       x="0"
       y="0"
       xlink:href="#path4223"
       id="use4225"
       transform="translate(43.941636,35.355339)"
       width="100%"
       height="100%" />
    <use
       x="0"
       y="0"
       xlink:href="#use4225"
       id="use4227"
       transform="translate(3.0304576,110.6117)"
       width="100%"
       height="100%" />
    <use
       x="0"
       y="0"
       xlink:href="#use4227"
       id="use4229"
       transform="translate(-34.850263,17.67767)"
       width="100%"
       height="100%" />
    <circle
       r="5.8083768"
       cy="609.99786"
       cx="674.30682"
       id="use4233"
       style="color:#000000;clip-rule:nonzero;display:inline;overflow:visible;visibility:visible;opacity:1;isolation:auto;mix-blend-mode:normal;color-interpolation:sRGB;color-interpolation-filters:linearRGB;solid-color:#000000;solid-opacity:1;fill:#000000;fill-opacity:1;fill-rule:nonzero;stroke:none;stroke-width:5.00000048;stroke-linecap:round;stroke-linejoin:round;stroke-miterlimit:4;stroke-dasharray:none;stroke-dashoffset:0;stroke-opacity:1;marker:none;marker-start:none;marker-mid:none;marker-end:none;paint-order:normal;color-rendering:auto;image-rendering:auto;shape-rendering:auto;text-rendering:auto;enable-background:accumulate" />
    <use
       x="0"
       y="0"
       xlink:href="#use4225"
       id="use4235"
       transform="translate(469.28571,-381.42857)"
       width="100%"
       height="100%" />
    <text
       id="text4237"
       y="297.20776"
       x="74.330116"
       style="font-style:normal;font-weight:normal;line-height:0%;font-family:sans-serif;letter-spacing:0px;word-spacing:0px;fill:#000000;fill-opacity:1;stroke:none;stroke-width:1px;stroke-linecap:butt;stroke-linejoin:miter;stroke-opacity:1"
       xml:space="preserve"><tspan
         style="font-style:normal;font-variant:normal;font-weight:normal;font-stretch:normal;font-size:25.62470436px;line-height:1.25;font-family:'Gentium Plus Compact';-inkscape-font-specification:'Gentium Plus Compact'"
         y="297.20776"
         x="74.330116"
         id="tspan4239"
         sodipodi:role="line">Rakovník</tspan></text>
    <use
       height="100%"
       width="100%"
       transform="translate(-259.10413,-571.24126)"
       id="use4241"
       xlink:href="#use4227"
       y="0"
       x="0" />
    <path
       style="fill:none;fill-rule:evenodd;stroke:#5f8dd3;stroke-width:5;stroke-linecap:round;stroke-linejoin:round;stroke-miterlimit:4;stroke-dasharray:none;stroke-opacity:1"
       d="m 115.61867,697.60967 c 3.81735,-1.98126 7.41722,-4.38118 10.71429,-7.14286 2.5004,-2.09438 4.82454,-4.39359 7.34603,-6.46252 2.52149,-2.06893 5.27764,-3.92368 8.36825,-4.96605 4.7001,-1.58521 9.85663,-1.19776 14.64286,-2.5 3.1042,-0.84459 6.07019,-2.40081 9.28571,-2.5 3.32692,-0.10263 6.50713,1.38171 9.28572,3.21429 3.06948,2.02443 5.81678,4.50049 8.83716,6.59747 3.02038,2.09698 6.42471,3.84239 10.09141,4.11681 2.61683,0.19585 5.24878,-0.37187 7.69324,-1.32621 2.44445,-0.95435 4.72154,-2.2875 6.94962,-3.67379 3.76576,-2.34303 7.43982,-4.86572 10.71428,-7.85714 2.79834,-2.55645 5.29198,-5.44338 8.21429,-7.85714 1.71432,-1.41598 3.58191,-2.66887 5.63283,-3.52772 2.05093,-0.85884 4.29542,-1.31373 6.51002,-1.11514 2.74875,0.24649 5.29806,1.46683 7.85715,2.5 2.97335,1.20041 6.04395,2.17115 8.92857,3.57143 3.21552,1.56091 6.20712,3.65712 9.64286,4.64286 2.32487,0.66702 4.85659,0.78927 7.14285,0 2.92876,-1.01107 5.19218,-3.41426 6.78572,-6.07143 2.19313,-3.65696 3.33192,-7.89197 5.71428,-11.42857 1.42412,-2.1141 3.26142,-3.9292 4.64286,-6.07143 1.85241,-2.87257 2.82119,-6.24749 3.21429,-9.64286 0.44688,-3.85983 0.1544,-7.88002 -1.42858,-11.42857 -1.34881,-3.02361 -3.57073,-5.58501 -5,-8.57143 -1.09876,-2.29582 -1.71142,-4.83475 -1.68208,-7.37979 0.0293,-2.54503 0.71043,-5.09227 2.03923,-7.26307 1.47177,-2.40437 3.68944,-4.28818 6.13087,-5.69762 2.44144,-1.40943 5.1125,-2.37258 7.7977,-3.23095 4.95603,-1.58429 10.15618,-2.90612 14.28571,-6.07143 1.27028,-0.97368 2.41249,-2.10415 3.66184,-3.10456 1.24935,-1.0004 2.63796,-1.88335 4.19531,-2.25258 1.65431,-0.39222 3.39417,-0.18055 5.05078,0.20189 1.6566,0.38244 3.27458,0.93314 4.94922,1.22668 3.67842,0.64477 7.63073,-0.0362 10.71428,-2.14286 1.30317,-0.89034 2.43039,-2.00906 3.60707,-3.0609 1.17668,-1.05184 2.43222,-2.05565 3.89293,-2.65338 1.81963,-0.74461 3.84634,-0.81519 5.71429,-1.42857 2.89161,-0.94953 5.24505,-3.1706 6.83651,-5.76488 1.59145,-2.59428 2.48855,-5.5531 3.16349,-8.52084 0.77391,-3.40291 1.27772,-6.8706 1.42857,-10.35714 0.16526,-3.81951 -0.0887,-7.69077 0.71428,-11.42857 0.6376,-2.96783 1.99745,-5.86255 4.28572,-7.85714 2.07703,-1.81046 4.78125,-2.76681 7.5,-3.21429 2.15527,-0.35474 4.37073,-0.41278 6.52133,-0.0307 2.15059,0.38207 4.23608,1.21375 5.97867,2.53072 1.65994,1.25451 2.96985,2.91068 4.1716,4.6092 1.20176,1.69852 2.31936,3.46435 3.68554,5.03366 2.28285,2.62226 5.25997,4.65511 8.57143,5.71428 1.10233,0.35258 2.24544,0.5991 3.4023,0.63227 1.15687,0.0332 2.33017,-0.15247 3.38337,-0.63227 1.13083,-0.51517 2.11154,-1.37705 2.71178,-2.46511 0.60023,-1.08807 0.80494,-2.40103 0.50252,-3.60632 -0.26315,-1.04877 -0.88377,-1.9713 -1.56145,-2.81386 -0.67768,-0.84256 -1.42603,-1.63323 -2.00995,-2.54328 -1.40407,-2.18824 -1.74655,-4.98922 -1.0714,-7.5 0.59167,-2.20035 1.90281,-4.14499 3.40988,-5.8539 1.50706,-1.70892 3.22277,-3.22025 4.80442,-4.86038 1.99039,-2.06399 3.76368,-4.32688 5.7142,-6.42858 0.78188,-0.84248 1.59802,-1.66389 2.54196,-2.3197 0.94393,-0.65581 2.0281,-1.14301 3.17234,-1.25172 1.12024,-0.10643 2.25543,0.15504 3.2781,0.62452 1.02266,0.46948 1.94109,1.14076 2.7934,1.87548 1.76778,1.52389 3.28744,3.35064 4.36477,5.42106 1.07733,2.07042 1.7046,4.38785 1.70663,6.72179 0.002,2.17797 -0.53136,4.31675 -0.79692,6.47848 -0.26556,2.16172 -0.23769,4.46213 0.79692,6.37867 0.60325,1.11747 1.51226,2.03522 2.42918,2.9138 0.91692,0.87858 1.86374,1.74564 2.57082,2.80048 0.79083,1.17979 1.24873,2.5444 1.76954,3.86579 0.52081,1.32139 1.13588,2.64911 2.15906,3.63421 1.05863,1.01924 2.50662,1.59848 3.9732,1.69165 1.46658,0.0932 2.94554,-0.28358 4.241,-0.97736 1.49153,-0.79878 2.73059,-1.99229 3.89362,-3.22115 1.16302,-1.22887 2.27871,-2.51575 3.60638,-3.56457 1.34356,-1.06137 2.87493,-1.85565 4.30093,-2.80337 1.42599,-0.94772 2.78533,-2.09638 3.55627,-3.6252 0.57397,-1.13821 0.7897,-2.43128 0.7909,-3.70602 0.001,-1.27473 -0.20398,-2.54013 -0.4338,-3.79398 -1.13633,-6.19953 -2.88851,-12.27568 -5,-18.21428 -0.58182,-1.63637 -1.19511,-3.27903 -1.4285,-5 -0.31131,-2.29549 0.068,-4.63181 0.64511,-6.87526 0.57713,-2.24346 1.35223,-4.43486 1.85489,-6.69617 0.75621,-3.40195 0.87896,-6.98483 0,-10.35715 -0.59295,-2.275 -1.62538,-4.40978 -2.35742,-6.64391 -0.73204,-2.23413 -1.1576,-4.67041 -0.49978,-6.92751 0.36153,-1.24049 1.03999,-2.37642 1.89122,-3.34849 0.85123,-0.97207 1.87271,-1.78517 2.96177,-2.48051 2.1781,-1.39066 4.61528,-2.31321 6.93271,-3.45672 1.99068,-0.98228 3.90479,-2.13351 5.9792,-2.92376 2.07441,-0.79025 4.37206,-1.20496 6.5208,-0.64767 1.4214,0.36865 2.71272,1.14744 3.82668,2.10419 1.11395,0.95676 2.06213,2.09026 2.95902,3.25296 2.6953,3.49409 5.00254,7.33093 8.2143,10.35714 4.09528,3.85869 9.4364,6.18402 13.5715,10 1.51154,1.39489 2.85588,2.99059 3.82615,4.80415 0.97028,1.81357 1.55715,3.85349 1.53095,5.91013 -0.0343,2.6902 -1.17818,5.38429 -3.2143,7.14286 -1.95663,1.68992 -4.54116,2.42681 -7.05097,3.04738 -2.50981,0.62057 -5.10475,1.20149 -7.23473,2.66691 -2.61541,1.79939 -4.20954,4.70467 -5.7143,7.5 -0.86669,1.61001 -1.74299,3.23948 -2.19526,5.01112 -0.45227,1.77164 -0.44378,3.7289 0.40956,5.34602 0.48406,0.91732 1.22399,1.69118 2.09361,2.25646 0.86962,0.56528 1.86607,0.92504 2.8895,1.09351 2.04685,0.33694 4.1592,-0.0872 6.08829,-0.84997 1.87144,-0.73994 3.60164,-1.78911 5.39009,-2.71174 1.78846,-0.92262 3.67893,-1.7314 5.68141,-1.93112 2.45069,-0.24442 4.92286,0.44684 7.12027,1.55904 2.19742,1.1122 4.15843,2.63227 6.09393,4.15525 3.25865,2.56411 6.48927,5.16491 9.6429,7.85714 2.12179,1.81136 4.21029,3.66536 6.4286,5.35714 1.85574,1.41527 3.8196,2.72525 5.99376,3.57365 2.17416,0.84839 4.58435,1.21503 6.86334,0.71207 2.66188,-0.58746 4.93517,-2.29105 7.5,-3.21429 2.99269,-1.07725 6.4209,-1.02472 9.2857,0.35715 2.98954,1.44204 5.23162,4.28885 6.0715,7.5 0.75658,2.89268 0.42608,5.93938 0.3571,8.92857 -0.0722,3.12855 0.15279,6.28446 0.97043,9.30514 0.81764,3.02068 2.24864,5.90972 4.38667,8.19486 3.63312,3.8831 8.89402,5.68462 13.5715,8.21428 2.7772,1.50196 5.47235,3.32477 8.5714,3.92857 2.77128,0.53994 5.63064,0.0546 8.39886,-0.5008 2.76822,-0.55538 5.57515,-1.18451 8.38684,-0.92777 2.57107,0.23477 5.02506,1.2047 7.30242,2.4209 2.27736,1.21621 4.41031,2.68275 6.62618,4.00767 5.46079,3.26514 11.40977,5.65867 17.5,7.5 6.16876,1.86508 12.50674,3.17722 18.5714,5.35715 5.62082,2.02039 10.95801,4.77026 16.0714,7.85714 3.14506,1.89863 6.22694,3.93915 8.9286,6.42857 3.78286,3.48568 6.738,7.77325 10.3572,11.42857 1.80052,1.81848 3.78569,3.4921 6.0714,4.64286 3.70436,1.865 7.98826,2.26123 11.7857,3.92857 1.82171,0.79986 3.51603,1.88906 5,3.21429"
       id="path4243"
       inkscape:path-effect="#path-effect4245"
       inkscape:original-d="m 115.61867,697.60967 c 0,0 7.19216,-4.68956 10.71429,-7.14286 5.3147,-3.7019 9.74602,-8.91262 15.71428,-11.42857 4.56273,-1.92344 9.80639,-1.43852 14.64286,-2.5 3.13093,-0.68716 6.08223,-2.61257 9.28571,-2.5 3.27341,0.11503 6.30054,1.86627 9.28572,3.21429 6.60771,2.98384 11.70972,10.0409 18.92857,10.71428 5.13537,0.47903 10.07018,-2.61419 14.64286,-5 3.9265,-2.04867 7.32113,-5.01091 10.71428,-7.85714 2.90296,-2.43504 5.0125,-5.83104 8.21429,-7.85714 3.66181,-2.31721 7.81122,-4.51905 12.14285,-4.64286 2.74731,-0.0785 5.27,1.57235 7.85715,2.5 3.01736,1.0819 5.99471,2.28015 8.92857,3.57143 3.26519,1.43711 6.16481,3.84916 9.64286,4.64286 2.32127,0.52972 4.91871,0.84977 7.14285,0 2.83524,-1.08325 4.94341,-3.65939 6.78572,-6.07143 2.58529,-3.3848 3.45819,-7.816 5.71428,-11.42857 1.34953,-2.16095 3.44991,-3.82025 4.64286,-6.07143 1.58647,-2.99378 2.88043,-6.27119 3.21429,-9.64286 0.3783,-3.82049 -0.19828,-7.79187 -1.42858,-11.42857 -1.05999,-3.13328 -4.17575,-5.36805 -5,-8.57143 -1.21665,-4.72839 -2.03728,-10.38791 0.35715,-14.64286 2.7046,-4.80614 9.05216,-6.35283 13.92857,-8.92857 4.57511,-2.41659 9.74535,-3.59017 14.28571,-6.07143 2.78162,-1.52013 4.76948,-4.63985 7.85715,-5.35714 3.27984,-0.76194 6.63412,1.522 10,1.42857 3.64075,-0.10106 7.39499,-0.64366 10.71428,-2.14286 2.86433,-1.29371 4.66725,-4.35279 7.5,-5.71428 1.76961,-0.85052 4.09664,-0.31587 5.71429,-1.42857 4.78908,-3.29417 7.87696,-8.87466 10,-14.28572 1.2729,-3.24429 1.08154,-6.8894 1.42857,-10.35714 0.38008,-3.79799 -0.3438,-7.7612 0.71428,-11.42857 0.82699,-2.86641 2.07895,-5.84955 4.28572,-7.85714 2.01193,-1.83033 4.79471,-2.93261 7.5,-3.21429 4.22633,-0.44006 8.86034,0.30718 12.5,2.5 3.55145,2.13968 4.78844,6.85465 7.85714,9.64286 2.54147,2.30918 5.28491,4.7192 8.57143,5.71428 2.16484,0.65546 4.8479,1.1667 6.78567,0 1.9618,-1.18116 3.33,-3.78443 3.2143,-6.07143 -0.10844,-2.14341 -2.80544,-3.35232 -3.5714,-5.35714 -0.90131,-2.35907 -1.71109,-5.05698 -1.0714,-7.5 1.13994,-4.35348 5.34848,-7.24451 8.2143,-10.71428 1.82576,-2.21053 3.52393,-4.57857 5.7142,-6.42858 1.71598,-1.4494 3.47603,-3.38297 5.7143,-3.57142 2.18097,-0.18363 4.46839,1.00991 6.0715,2.5 3.31463,3.08095 5.03169,7.73854 6.0714,12.14285 0.98465,4.17107 -1.5074,8.84528 0,12.85715 0.89022,2.36926 3.56949,3.62633 5,5.71428 1.59511,2.3282 1.57961,5.93568 3.9286,7.5 2.28756,1.52341 5.60911,1.59019 8.2142,0.71429 3.19559,-1.07444 4.94455,-4.58665 7.5,-6.78572 2.565,-2.20729 6.33574,-3.4059 7.8572,-6.42857 1.12529,-2.2356 0.63227,-5.01234 0.3571,-7.5 -0.69221,-6.25786 -3.30186,-12.15158 -5,-18.21428 -0.46751,-1.66911 -1.34523,-3.26865 -1.4285,-5 -0.22098,-4.59461 2.0816,-8.99057 2.5,-13.57143 0.31402,-3.43807 0.35754,-6.92333 0,-10.35715 -0.47877,-4.59812 -4.4337,-9.22555 -2.8572,-13.57142 1.70555,-4.70162 7.33296,-7.00816 11.7857,-9.28572 3.858,-1.97336 8.24873,-4.41108 12.5,-3.57143 2.82722,0.55839 4.74566,3.32166 6.7857,5.35715 3.11925,3.1123 5.04372,7.29715 8.2143,10.35714 4.04332,3.90228 9.95272,5.70109 13.5715,10 2.57145,3.05474 5.27567,6.72214 5.3571,10.71428 0.0532,2.61038 -1.32943,5.33616 -3.2143,7.14286 -3.70253,3.54896 -10.20316,2.61 -14.2857,5.71429 -2.50184,1.90235 -4.45888,4.61867 -5.7143,7.5 -1.39936,3.2117 -3.73187,7.44412 -1.7857,10.35714 2.10175,3.14589 7.30249,2.83061 11.0714,2.5 3.98656,-0.34971 7.0697,-4.66502 11.0715,-4.64286 4.79886,0.0266 9.11281,3.22262 13.2142,5.71429 3.54355,2.15277 6.44309,5.22041 9.6429,7.85714 2.15268,1.77387 3.99179,3.9997 6.4286,5.35714 3.94651,2.19843 8.34348,4.47346 12.8571,4.28572 2.71757,-0.11303 4.82561,-2.71872 7.5,-3.21429 3.04567,-0.56437 6.51617,-1.03007 9.2857,0.35715 2.87591,1.4405 4.93765,4.48997 6.0715,7.5 1.04997,2.78737 -0.14247,5.99219 0.3571,8.92857 1.02319,6.01412 1.60814,12.68733 5.3571,17.5 3.24959,4.17161 8.89839,5.73955 13.5715,8.21428 2.77751,1.47088 5.47507,3.38931 8.5714,3.92857 5.53219,0.96349 11.25479,-2.39937 16.7857,-1.42857 5.03652,0.88402 9.25669,4.34979 13.9286,6.42857 5.79839,2.58001 11.52292,5.3664 17.5,7.5 6.06787,2.16601 12.55937,3.04065 18.5714,5.35715 5.56431,2.14399 10.95489,4.79453 16.0714,7.85714 3.14672,1.88355 6.19401,3.98488 8.9286,6.42857 3.83353,3.42572 6.57344,7.94795 10.3572,11.42857 1.87506,1.72483 3.82023,3.44991 6.0714,4.64286 3.65905,1.93902 8.05068,2.14024 11.7857,3.92857 1.78707,0.85565 5,3.21429 5,3.21429"
       inkscape:connector-curvature="0"
       sodipodi:nodetypes="caaaaaaaaaaaaaaaaaaaaaaaaaaaaaaaaaaaaaaaaaaaaaaaaaaaaaaaaaaaaaaaaaaaaaaaaaaaaaaaaaaaaaaaaac" />
    <text
       id="text4247"
       y="711.87537"
       x="212.88091"
       style="font-style:normal;font-weight:normal;line-height:0%;font-family:sans-serif;letter-spacing:0px;word-spacing:0px;fill:#000000;fill-opacity:1;stroke:none;stroke-width:1px;stroke-linecap:butt;stroke-linejoin:miter;stroke-opacity:1"
       xml:space="preserve"><tspan
         style="font-style:normal;font-variant:normal;font-weight:normal;font-stretch:normal;font-size:25.62470436px;line-height:1.25;font-family:'Gentium Plus Compact';-inkscape-font-specification:'Gentium Plus Compact'"
         y="711.87537"
         x="212.88091"
         id="tspan4249"
         sodipodi:role="line">Skryje</tspan></text>
    <circle
       r="5.8083768"
       cy="683.58582"
       cx="245.17058"
       id="circle4251"
       style="color:#000000;clip-rule:nonzero;display:inline;overflow:visible;visibility:visible;opacity:1;isolation:auto;mix-blend-mode:normal;color-interpolation:sRGB;color-interpolation-filters:linearRGB;solid-color:#000000;solid-opacity:1;fill:#000000;fill-opacity:1;fill-rule:nonzero;stroke:none;stroke-width:5.00000048;stroke-linecap:round;stroke-linejoin:round;stroke-miterlimit:4;stroke-dasharray:none;stroke-dashoffset:0;stroke-opacity:1;marker:none;marker-start:none;marker-mid:none;marker-end:none;paint-order:normal;color-rendering:auto;image-rendering:auto;shape-rendering:auto;text-rendering:auto;enable-background:accumulate" />
    <text
       xml:space="preserve"
       style="font-style:normal;font-weight:normal;line-height:0%;font-family:sans-serif;letter-spacing:0px;word-spacing:0px;fill:#000000;fill-opacity:1;stroke:none;stroke-width:1px;stroke-linecap:butt;stroke-linejoin:miter;stroke-opacity:1"
       x="179.54587"
       y="638.13422"
       id="text4253"><tspan
         sodipodi:role="line"
         id="tspan4255"
         x="179.54587"
         y="638.13422"
         style="font-style:normal;font-variant:normal;font-weight:normal;font-stretch:normal;font-size:25.62470436px;line-height:1.25;font-family:'Gentium Plus Compact';-inkscape-font-specification:'Gentium Plus Compact'">Týřovice</tspan></text>
    <circle
       style="color:#000000;clip-rule:nonzero;display:inline;overflow:visible;visibility:visible;opacity:1;isolation:auto;mix-blend-mode:normal;color-interpolation:sRGB;color-interpolation-filters:linearRGB;solid-color:#000000;solid-opacity:1;fill:#000000;fill-opacity:1;fill-rule:nonzero;stroke:none;stroke-width:5.00000048;stroke-linecap:round;stroke-linejoin:round;stroke-miterlimit:4;stroke-dasharray:none;stroke-dashoffset:0;stroke-opacity:1;marker:none;marker-start:none;marker-mid:none;marker-end:none;paint-order:normal;color-rendering:auto;image-rendering:auto;shape-rendering:auto;text-rendering:auto;enable-background:accumulate"
       id="circle4257"
       cx="281.53607"
       cy="640.14923"
       r="5.8083768" />
    <use
       height="100%"
       width="100%"
       transform="translate(-171.72593,97.984797)"
       id="use4259"
       xlink:href="#use4229"
       y="0"
       x="0" />
    <use
       x="0"
       y="0"
       xlink:href="#use4229"
       id="use4261"
       transform="translate(55.558393,61.619305)"
       width="100%"
       height="100%" />
    <text
       xml:space="preserve"
       style="font-style:normal;font-weight:normal;line-height:0%;font-family:sans-serif;letter-spacing:0px;word-spacing:0px;fill:#000000;fill-opacity:1;stroke:none;stroke-width:1px;stroke-linecap:butt;stroke-linejoin:miter;stroke-opacity:1"
       x="598.75916"
       y="876.02515"
       id="text4263"><tspan
         sodipodi:role="line"
         id="tspan4265"
         x="598.75916"
         y="876.02515"
         style="font-style:normal;font-variant:normal;font-weight:normal;font-stretch:normal;font-size:25.62470436px;line-height:1.25;font-family:'Gentium Plus Compact';-inkscape-font-specification:'Gentium Plus Compact'">Zdice</tspan></text>
    <use
       height="100%"
       width="100%"
       transform="translate(213.14219,-36.870568)"
       id="use4267"
       xlink:href="#use4229"
       y="0"
       x="0" />
    <text
       xml:space="preserve"
       style="font-style:normal;font-weight:normal;line-height:0%;font-family:sans-serif;letter-spacing:0px;word-spacing:0px;fill:#000000;fill-opacity:1;stroke:none;stroke-width:1px;stroke-linecap:butt;stroke-linejoin:miter;stroke-opacity:1"
       x="367.4342"
       y="473.98444"
       id="text4269"><tspan
         sodipodi:role="line"
         id="tspan4271"
         x="367.4342"
         y="473.98444"
         style="font-style:normal;font-variant:normal;font-weight:normal;font-stretch:normal;font-size:25.62470436px;line-height:1.25;font-family:'Gentium Plus Compact';-inkscape-font-specification:'Gentium Plus Compact'">Křivoklát</tspan></text>
    <circle
       style="color:#000000;clip-rule:nonzero;display:inline;overflow:visible;visibility:visible;opacity:1;isolation:auto;mix-blend-mode:normal;color-interpolation:sRGB;color-interpolation-filters:linearRGB;solid-color:#000000;solid-opacity:1;fill:#000000;fill-opacity:1;fill-rule:nonzero;stroke:none;stroke-width:5.00000048;stroke-linecap:round;stroke-linejoin:round;stroke-miterlimit:4;stroke-dasharray:none;stroke-dashoffset:0;stroke-opacity:1;marker:none;marker-start:none;marker-mid:none;marker-end:none;paint-order:normal;color-rendering:auto;image-rendering:auto;shape-rendering:auto;text-rendering:auto;enable-background:accumulate"
       id="circle4273"
       cx="438.61478"
       cy="489.13144"
       r="5.8083768" />
    <text
       id="text4275"
       style="font-style:normal;font-weight:normal;font-size:25.62470436px;line-height:0%;font-family:sans-serif;letter-spacing:0px;word-spacing:0px;fill:#5f8dd3;fill-opacity:1;stroke:none;stroke-width:1px;stroke-linecap:butt;stroke-linejoin:miter;stroke-opacity:1"
       xml:space="preserve"><textPath
         xlink:href="#path4282"
         startOffset="50%"
         id="textPath4286"><tspan
   id="tspan4277"
   style="font-style:normal;font-variant:normal;font-weight:normal;font-stretch:normal;font-family:'Gentium Plus Compact';-inkscape-font-specification:'Gentium Plus Compact';text-align:center;text-anchor:middle;fill:#5f8dd3;fill-opacity:1">Berounka</tspan></textPath></text>
    <path
       style="fill:none;fill-rule:evenodd;stroke:none;stroke-width:1px;stroke-linecap:butt;stroke-linejoin:miter;stroke-opacity:1"
       d="m 445.96679,581.58466 c 19.62968,-15.4039 45.37242,-22.78485 70.18203,-20.12257 20.13207,2.16034 39.51517,10.8216 54.55509,24.37772 15.03991,13.55612 25.66076,31.9387 29.89312,51.73907"
       id="path4282"
       inkscape:path-effect="#path-effect4284"
       inkscape:original-d="m 445.96679,581.58466 c 0,0 46.47065,-25.60354 70.18203,-20.12257 36.92285,8.53485 -14.20412,54.92188 84.44821,76.11679"
       inkscape:connector-curvature="0"
       sodipodi:nodetypes="cac" />
    <path
       style="fill:#000000"
       d="m 341.4227,170.71818 c -2.85078,0.29066 -3.60558,1.08479 -3.47031,2.37184 0.0714,0.67914 2.4025,3.95776 5.18054,7.2855 4.16766,4.99232 12.95474,21.75857 13.34393,25.46145 0.11977,1.1395 -11.70385,4.45599 -18.77692,5.26697 -4.83981,0.55491 -9.00598,2.06195 -18.61307,6.73247 l -12.37819,6.01826 -2.63787,5.80754 c -2.73662,6.02384 -6.78553,11.63711 -11.58736,16.06484 -1.53408,1.41456 -3.14782,4.22234 -3.58623,6.23912 -0.72118,3.31752 -1.79011,4.29118 -11.21463,10.21257 -5.72937,3.59974 -11.60492,6.6695 -13.05764,6.82219 -1.71302,0.18005 -3.69909,1.62566 -5.64985,4.1131 -1.69752,2.16454 -3.99154,3.93881 -5.26524,4.07268 -1.2413,0.13047 -3.48885,1.72413 -4.99506,3.54153 -2.14758,2.59129 -3.64315,3.40718 -6.92779,3.78198 -3.27259,0.37345 -4.95277,1.28667 -7.68415,4.17176 l -3.49454,3.69215 4.60149,8.72698 c 4.1567,7.88187 4.5038,9.00341 3.58303,11.59328 -1.27429,3.58417 -10.20434,7.99796 -13.80393,6.82206 -3.11971,-1.01913 -3.43755,-0.14356 -1.45927,4.01634 5.12846,10.78403 11.51587,16.39116 20.83216,18.2859 3.04633,0.61956 6.28256,1.04826 7.19171,0.9527 0.90915,-0.0956 2.67432,0.65331 3.92194,1.66361 1.95585,1.58381 2.25398,2.58569 2.16228,7.26888 -0.0906,4.62633 0.29122,5.9551 2.58013,8.96496 4.96951,6.5348 10.01049,11.41406 14.82312,14.34752 2.62985,1.603 5.38207,4.19072 6.11712,5.75147 1.65735,3.51908 3.99514,4.50891 10.88333,4.61029 2.96271,0.0436 6.72488,0.82966 8.35907,1.74517 2.77722,1.55588 2.99934,2.08133 3.40416,8.04175 0.35606,5.24243 0.87835,6.86324 2.9373,9.11202 1.37747,1.50447 2.60058,3.64736 2.71789,4.76348 0.12706,1.20888 0.86629,1.96121 1.82751,1.86018 1.38113,-0.14516 1.44272,0.086 0.4333,1.6002 -3.123,4.68448 -8.54742,7.64579 -16.35727,8.93059 -6.53746,1.07547 -7.8831,1.61435 -8.76709,3.50986 -3.9374,8.44284 -3.35919,7.90901 -7.86466,7.25636 -3.49376,-0.5061 -5.081,-0.14113 -10.10183,2.3206 -6.69132,3.28078 -6.10408,3.11785 -20.25515,5.6089 -10.99966,1.93629 -12.85752,2.83409 -11.78008,5.69222 0.3702,0.98203 -0.20105,3.48117 -1.26822,5.55362 -1.66146,3.22656 -2.35281,3.72863 -4.81882,3.49943 -2.43881,-0.22666 -3.54358,0.5391 -7.20696,4.99358 l -4.32541,5.26025 -16.20887,1.95302 c -8.91471,1.07484 -17.54218,2.54517 -19.17183,3.26604 -4.49462,1.98817 -10.1849,6.80353 -11.83985,10.01905 -1.26793,2.46354 -1.93657,2.82479 -4.69292,2.5298 -8.90609,-0.95318 -13.87976,-0.29035 -18.33504,2.44555 -2.42665,1.49015 -5.4778,3.3396 -6.7794,4.11006 -2.00654,1.18776 -2.35378,2.24985 -2.28249,6.98388 l 0.0842,5.58429 -9.69417,-1.34955 c -11.41181,-1.58887 -11.91436,-1.38697 -18.43899,7.45457 -3.41655,4.62978 -5.37392,6.27194 -9.37379,7.86471 -2.780431,1.10718 -5.706689,2.2755 -6.50252,2.59626 -2.197478,0.88569 -8.650166,-6.6712 -7.932503,-9.29008 1.041743,-3.8015 0.407674,-5.09938 -3.213725,-6.58491 -3.686457,-1.51224 -3.37192,-1.53928 -22.351854,2.04683 -3.000508,0.56692 -4.738944,1.52529 -5.722476,3.16041 -1.09778,1.82499 -2.084794,2.28949 -4.435531,2.08246 -1.695556,-0.14931 -4.864527,0.61574 -7.212894,1.74201 -2.303779,1.10488 -5.323735,2.12869 -6.711123,2.27451 -1.387388,0.14582 -4.449013,1.6937 -6.802803,3.43891 -2.353791,1.7452 -5.225384,3.15484 -6.381257,3.13341 -1.155872,-0.0214 -2.584251,0.68646 -3.175237,1.57294 -0.590986,0.88647 -1.76761,1.42624 -2.613525,1.19969 -0.970642,-0.25998 -1.652195,0.33576 -1.847063,1.61598 -0.236592,1.55425 -1.933981,2.59789 -7.263102,4.45941 -3.8254475,1.33628 -11.03468463,4.26022 -16.0197387,6.49918 -4.9850643,2.23896 -9.9369853,4.2114 -11.0046613,4.38133 -1.526436,0.24296 -2.520829,2.54686 -4.656075,10.78406 -1.493513,5.76158 -2.688554,12.83042 -2.653734,15.70915 0.03511,2.90232 -0.60049,6.1433 -1.427067,7.27496 -1.384425,1.89536 -1.349851,2.27138 0.481605,5.27347 1.084623,1.77789 2.673416,3.41974 3.52967,3.64909 2.506906,0.67142 1.99692,2.31133 -1.312083,4.22081 -5.874669,3.39001 -6.098793,3.84542 -3.14799,6.39142 2.65138,2.28765 2.650344,2.28822 0.488273,2.51547 -2.947504,0.30979 -2.478271,2.69213 0.741811,3.76928 2.326773,0.77831 2.505193,1.12494 1.580216,3.07628 -0.911907,1.92377 -0.705903,2.42235 1.646519,3.96877 3.587206,2.35816 11.109009,5.17326 16.5709227,6.20028 2.6776472,0.50348 5.41305857,1.89197 6.9041467,3.50454 1.3582306,1.46889 3.8414066,3.87582 5.5170864,5.3491 1.6756797,1.47329 3.1149182,3.32785 3.1983712,4.12185 0.08345,0.79401 1.704726,3.87002 3.603292,6.83463 1.898556,2.9646 3.905758,6.47289 4.460551,7.79716 0.554802,1.32426 2.744843,4.37523 4.866266,6.78043 2.121434,2.4052 3.982338,5.56415 4.135176,7.01831 0.25503,2.42645 5.871183,7.76477 7.939828,7.54735 0.408768,-0.043 1.546588,-1.35594 2.529248,-2.91708 l 1.787449,-2.83714 6.505257,2.10105 c 3.57737,1.15579 7.104153,2.48139 7.83924,2.94672 0.735086,0.46532 4.544539,0.86171 8.464513,0.8798 5.081327,0.0234 7.710844,0.54103 9.160449,1.80235 3.121901,2.71638 8.698171,5.04916 12.760684,5.33796 2.017828,0.14345 4.784176,1.03836 6.145934,1.98957 1.361769,0.95121 3.189194,1.65614 4.062932,1.56631 0.873743,-0.0898 3.136898,0.56974 5.028527,1.46679 2.604145,1.23492 3.512865,2.33065 3.741775,4.50857 0.36413,3.46448 1.61997,4.38477 7.46642,5.47219 4.69818,0.87384 6.34549,2.46398 4.86505,4.69491 -0.4881,0.73555 -1.0245,3.05328 -1.19272,5.15094 -0.38023,4.74126 -1.23023,5.42423 -5.25842,4.23103 -2.82209,-0.83595 -3.32404,-0.71528 -4.35307,1.05455 -1.53005,2.63154 -1.25698,4.64315 0.60298,4.44767 0.82048,-0.0862 1.533,0.23533 1.58345,0.71535 0.0504,0.48 -0.52095,1.50104 -1.26987,2.26821 -0.74891,0.76718 -1.2752,2.2174 -1.16941,3.22388 0.10578,1.00649 -0.4657,4.37344 -1.26997,7.48036 -1.06742,4.12351 -2.29778,6.26802 -4.556163,7.94164 -3.567912,2.64409 -4.358506,6.61762 -1.882237,9.4654 1.448111,1.66536 1.514115,2.32578 0.523625,5.24352 -0.623238,1.83591 -1.206989,5.38182 -1.298661,7.88008 -0.09167,2.49827 -1.069673,6.60592 -2.172924,9.1287 -1.103261,2.52279 -1.902896,5.56919 -1.776719,6.76969 0.532164,5.0632 6.34819,20.60849 8.097709,21.64321 5.9144,3.49793 5.39056,2.30855 9.63625,21.85661 2.05949,9.48235 2.19564,11.22259 1.10241,14.02017 -0.68649,1.75678 -0.89215,3.65293 -0.45856,4.21359 0.4336,0.56064 3.79868,1.69147 7.47946,2.5132 3.68079,0.82173 6.85581,1.62271 7.0548,1.78014 0.199,0.15744 -0.19901,1.40342 -0.88545,2.76787 -0.78359,1.55754 -0.94536,4.11148 -0.43352,6.86221 0.44839,2.4097 0.50232,5.14922 0.11957,6.08921 -0.38274,0.94 -0.5871,4.09851 -0.45235,7.01933 0.14563,3.15643 -0.25232,5.56563 -0.98235,5.93795 -0.67553,0.34454 -1.76601,2.00461 -2.42448,3.68965 -0.65847,1.68504 -2.25265,3.59593 -3.54033,4.24685 -4.88154,2.46764 -0.31673,11.20073 8.93825,17.10275 7.15512,4.56291 8.50592,6.30043 8.05216,10.35371 -0.40421,3.61071 1.42888,5.78271 4.60067,5.44934 1.22528,-0.12878 4.0589,0.93083 6.29625,2.35476 2.23736,1.42394 4.45314,2.54849 4.92491,2.4989 1.1861,-0.12466 1.47367,3.60795 0.34525,4.48065 -1.88141,1.45503 3.5762,14.86992 6.65186,16.35129 0.63073,0.30379 1.23792,1.42646 1.35029,2.49558 0.11237,1.06911 0.81829,2.72999 1.56816,3.69028 2.19934,2.81654 0.3243,12.5299 -2.55828,13.25408 -2.68401,0.67429 -2.66514,3.47732 0.0216,3.19493 2.6291,-0.27632 4.03918,3.26692 2.26588,5.69474 -0.92952,1.27262 -1.20025,3.79003 -0.8086,7.51633 0.34407,3.27367 -0.0234,7.80812 -0.88265,10.90394 -1.25849,4.53415 -1.24725,5.66317 0.0758,7.82204 1.26204,2.05921 2.33104,2.4972 5.80841,2.38442 3.13597,-0.10168 4.37267,-0.56343 4.69044,-1.74987 0.75366,-2.81394 6.6464,-2.64465 10.8243,0.31167 2.04142,1.44453 4.50867,2.54265 5.48238,2.44031 0.9737,-0.10234 3.95052,0.81331 6.61608,2.03441 4.23693,1.94097 6.14197,2.13407 15.15023,1.54005 9.69473,-0.63928 10.372,-0.54695 11.42911,1.54426 0.61797,1.22248 2.44612,2.78272 4.06436,3.46719 2.21628,0.93742 4.52223,0.92517 9.34334,-0.0453 3.52021,-0.70857 6.71567,-1.51739 7.10085,-1.79897 0.38518,-0.28156 0.54197,-2.0186 0.3486,-3.85835 -0.39624,-3.77 0.23911,-4.18634 12.69619,-8.3553 9.26999,-3.10236 17.69446,-7.26181 21.21299,-10.472 1.61099,-1.46982 4.57024,-3.4084 6.57415,-4.30648 2.37514,-1.06445 4.00771,-2.6556 4.69037,-4.57196 1.27544,-3.58037 2.90159,-4.52172 5.78119,-3.34922 1.4647,0.59639 2.28595,1.86842 2.49608,3.86771 0.18532,1.76321 0.96249,3.15358 1.90352,3.40561 0.87467,0.23427 5.71478,-0.58771 10.75655,-1.82774 7.99771,-1.96702 9.93145,-2.13037 15.16222,-1.27939 7.66271,1.24663 19.82029,0.92172 40.47014,-1.07995 15.49764,-1.50224 16.80028,-1.47635 23.11482,0.44763 4.4965,1.37004 6.98722,1.67486 7.59001,0.93047 0.4934,-0.60929 1.72963,-1.19515 2.74808,-1.30219 3.27841,-0.34458 12.19842,-6.42709 16.7714,-11.43683 2.44484,-2.67835 4.7657,-4.90533 5.15763,-4.94708 0.39192,-0.0418 1.73506,-2.44532 2.98343,-5.34111 1.85829,-4.3106 2.76093,-5.31577 4.98434,-5.54946 5.03894,-0.52962 12.67157,-4.91963 15.72101,-9.04244 1.61889,-2.18872 3.64147,-4.05323 4.49391,-4.14283 2.25242,-0.23673 5.05876,3.43606 5.44679,7.12791 0.47079,4.47921 2.38676,7.88 7.01813,12.45574 3.90295,3.85802 11.0802,8.10691 13.30017,7.87358 0.61233,-0.0644 4.59325,-2.09234 8.84705,-4.50609 4.2537,-2.41374 9.94373,-4.88997 12.64453,-5.50225 4.32441,-0.98034 5.61995,-1.93284 10.85498,-7.99093 3.26952,-3.78358 7.75878,-8.42666 9.97612,-10.31806 4.41881,-3.76929 15.11554,-9.25364 21.48759,-11.01736 2.87672,-0.79625 4.14623,-1.71036 4.36375,-3.13934 0.41229,-2.709 -1.49801,-7.21151 -4.27065,-10.06381 -1.24781,-1.28365 -2.07747,-3.04791 -1.84381,-3.92054 0.26612,-0.99343 -0.7423,-2.33267 -2.69595,-3.58353 -1.71606,-1.09881 -2.88237,-2.29394 -2.59259,-2.65566 0.28977,-0.36172 3.32457,-1.17419 6.7448,-1.80476 3.42022,-0.63056 6.67018,-1.58671 7.22353,-2.12608 0.55326,-0.53936 2.57552,-1.67507 4.49344,-2.52257 1.91792,-0.8475 4.19089,-2.50138 5.04952,-3.67687 0.85853,-1.17547 1.91872,-2.17537 2.35691,-2.22143 0.43809,-0.046 2.81069,-1.56612 5.27147,-3.37811 2.46077,-1.812 7.59766,-4.66724 11.41687,-6.34534 3.81932,-1.67811 7.38101,-3.70644 7.91413,-4.50624 1.36461,-2.0469 10.77201,-6.58195 14.45611,-6.96917 2.41411,-0.25373 10.00089,-2.75422 11.25024,-3.708 0.12715,-0.0971 -1.17623,-2.81158 -2.89628,-6.03108 -3.91336,-7.32159 -3.98557,-8.00962 -0.79418,-7.55604 1.94883,0.27698 2.51109,-0.0256 2.37954,-1.2772 -0.0948,-0.90145 1.43349,-3.58138 3.39603,-5.95597 1.96254,-2.37459 3.50363,-4.93231 3.42462,-5.68403 -0.079,-0.75173 0.9714,-2.59658 2.33417,-4.10044 1.36277,-1.50386 3.51174,-4.27063 4.77611,-6.14815 2.62547,-3.89859 7.7564,-8.10109 10.21274,-8.3653 2.78271,-0.29876 21.45696,-10.39696 27.42619,-14.83088 0.76947,-0.57155 2.69978,-1.5786 4.28957,-2.23798 2.40414,-0.99714 2.93153,-1.87628 3.13526,-5.22353 0.29248,-4.80273 1.30178,-11.76768 1.74745,-12.05534 0.17476,-0.11281 1.26028,-0.86891 2.41168,-1.68122 1.15149,-0.81231 2.82048,-1.55333 3.70759,-1.64657 1.23987,-0.13031 1.40054,-0.75129 0.69406,-2.68294 -0.71003,-1.94146 -0.40072,-3.10565 1.36271,-5.12168 1.25544,-1.43532 2.18786,-3.51215 2.07196,-4.6149 -0.13022,-1.2389 1.38785,-3.43496 3.97388,-5.74569 12.50797,-11.17639 11.90562,-10.42205 11.77506,-14.69021 -0.10521,-3.43858 -0.51118,-4.18043 -2.79972,-5.11231 -1.47212,-0.5994 -2.76192,-1.89413 -2.86516,-2.87643 -0.10325,-0.98229 -1.16378,-2.18311 -2.35637,-2.6687 -3.45624,-1.4073 -2.40301,-6.42744 2.50508,-11.94839 4.07848,-4.5878 4.28554,-6.82913 0.59556,-6.44129 -1.64185,0.17256 -2.00561,-0.50918 -2.43095,-4.55602 -0.49395,-4.69963 -0.39537,-4.88294 7.97318,-14.96815 4.88437,-5.88628 10.18375,-11.17727 12.51261,-12.49356 5.55183,-3.13782 15.43135,-5.22147 18.60205,-3.92296 1.35618,0.5554 4.06792,1.19522 6.02722,1.42074 1.95931,0.22551 4.76471,0.57118 6.2336,0.76864 2.28655,0.30736 2.72682,-0.0355 3.06059,-2.38377 0.22781,-1.60284 -0.15207,-3.27318 -0.91522,-4.01813 -1.00132,-0.97712 -1.02108,-1.30472 -0.0827,-1.40334 0.79601,-0.0837 0.92593,-0.9427 0.37224,-2.45667 -0.70762,-1.93484 -0.27105,-2.75782 2.5829,-4.87285 2.30517,-1.70827 3.00891,-2.74925 2.14159,-3.16699 -0.71067,-0.34225 -1.08474,-1.39958 -0.83018,-2.34992 0.56015,-2.09147 -0.20303,-2.03888 6.67679,-0.45234 5.90066,1.36072 7.70988,0.97999 5.51835,-1.15935 -0.99419,-0.9705 -0.67372,-1.27838 1.57688,-1.51493 2.91296,-0.30616 6.94318,-4.77536 6.66798,-7.39374 -0.0773,-0.7354 0.19479,-1.37546 0.60461,-1.42256 1.07619,-0.12444 2.71166,-5.34686 2.42333,-7.7371 -0.1354,-1.11983 -1.00965,-2.85203 -1.9423,-3.84931 -1.08672,-1.16203 -1.58063,-2.84962 -1.37366,-4.69856 0.17771,-1.58679 -0.30446,-4.04087 -1.07217,-5.45491 -2.25697,-4.15687 0.43063,-10.15062 5.72446,-12.764 l 4.17097,-2.0586 0.12108,-8.69504 c 0.0731,-5.26935 0.67533,-9.48226 1.53083,-10.69714 0.77632,-1.10239 1.94297,-4.54871 2.59255,-7.65865 1.86918,-8.94934 3.77546,-13.02354 8.16993,-17.46922 2.25244,-2.27876 5.41176,-6.45365 7.02186,-9.27699 1.96175,-3.44012 3.87139,-5.44646 5.78839,-6.08369 3.52143,-1.17058 7.15701,-5.67881 5.89503,-7.31055 -1.44851,-1.8729 -1.63626,-11.37582 -0.38679,-19.56282 1.32183,-8.66094 0.38342,-11.46084 -5.54941,-16.58697 l -3.30292,-2.85594 2.21791,-4.57133 c 1.21981,-2.51488 2.36189,-6.37484 2.53916,-8.57804 0.37209,-4.62605 4.33786,-15.50492 7.01371,-19.23891 1.00677,-1.40487 3.95038,-3.91439 6.54072,-5.57753 2.59035,-1.66312 5.42036,-3.79647 6.28899,-4.73998 1.64332,-1.785 1.48953,-6.7296 -0.35034,-11.25551 -1.20735,-2.96989 0.63139,-7.10492 3.28329,-7.38365 4.05944,-0.42666 0.41763,-5.70713 -6.18171,-8.96349 -4.70908,-2.32359 -9.88883,-1.81255 -16.10168,1.59024 -4.27155,2.33953 -5.40307,2.14894 -8.38559,-1.41835 -2.40669,-2.87866 -5.87987,-4.4606 -9.06105,-4.12624 -1.06822,0.11227 -2.06913,-0.34813 -2.22453,-1.02308 -0.1552,-0.67498 -0.43329,-1.66382 -0.61788,-2.19745 -0.18449,-0.53364 -0.4643,-1.69389 -0.62059,-2.57817 -0.15669,-0.88423 -1.80106,-2.04239 -3.65423,-2.57352 -1.85316,-0.53113 -3.78797,-1.51365 -4.3006,-2.18353 -0.51262,-0.66988 -1.91698,-1.11624 -3.12075,-0.99173 -2.58642,0.2674 -9.02086,-2.58527 -9.17679,-4.06891 -0.18447,-1.75508 -5.05068,-2.51808 -7.65762,-1.20028 -1.72423,0.87163 -2.3462,0.871 -2.26278,-0.004 0.20045,-2.1004 -7.13617,-0.56326 -9.36767,1.9626 -2.12474,2.40504 -9.84317,5.30529 -15.99634,6.01164 -2.02222,0.23213 -4.72881,1.17958 -6.01411,2.10502 -3.80105,2.73682 -7.6221,2.707 -9.25962,-0.0735 -1.20764,-2.05048 -1.06978,-3.6031 0.93166,-10.47508 1.44241,-4.95265 2.16761,-9.79611 1.87834,-12.54828 -0.36738,-3.49542 0.0223,-5.05404 1.76972,-7.07923 2.65562,-3.07783 2.66834,-4.72191 0.048,-6.23252 -1.34308,-0.77422 -2.60118,-3.63278 -4.14847,-9.42464 -1.22153,-4.57236 -2.75734,-9.38821 -3.41274,-10.7019 -0.65541,-1.31368 -2.23963,-8.83931 -3.51939,-16.72373 -2.94234,-18.12731 -4.29331,-21.11955 -10.62889,-23.54728 -4.76129,-1.8245 -8.77078,-5.32616 -12.3037,-10.74346 -3.528,-5.40976 -5.14171,-7.54578 -8.10458,-10.72135 -2.46507,-2.642 -3.20732,-4.54091 -4.27592,-10.95484 -1.40859,-8.4549 -2.21159,-9.4279 -7.35861,-8.91246 -1.71017,0.17128 -4.55082,0.17715 -6.31248,0.0134 -3.14092,-0.29193 -3.17723,-0.34755 -1.86079,-2.90539 1.24105,-2.41128 1.19707,-2.73785 -0.57652,-4.32672 -3.51034,-3.14467 -13.39524,-3.62447 -19.23211,-0.9323 -1.96129,0.90462 -4.28497,1.05146 -7.88964,0.49734 l -5.11021,-0.78656 -0.2582,-5.67008 c -0.18676,-4.09978 -0.63791,-5.7402 -1.6272,-5.91506 -6.6126,-1.1688 -10.35935,-1.55167 -15.22453,-1.55579 l -5.67416,-0.005 -3.04365,6.44919 c -2.18122,4.61914 -3.52811,6.36494 -4.74268,6.14857 -0.93278,-0.16615 -3.75723,-0.61077 -6.27636,-0.98804 -2.51914,-0.37725 -6.0962,-1.76029 -7.95062,-3.07247 -2.48252,-1.7567 -5.27633,-2.49814 -10.59619,-2.8121 -16.5879,-0.97899 -17.08691,-1.11845 -19.84176,-5.55602 -1.38257,-2.22714 -2.32672,-4.7507 -2.09751,-5.60638 0.48288,-1.80301 -4.43473,-5.43612 -10.52691,-7.77819 -3.24309,-1.24678 -4.38483,-1.2849 -5.78241,-0.19352 -1.40418,1.09646 -2.64234,1.03545 -6.39444,-0.31771 -2.55919,-0.92295 -5.12311,-1.62966 -5.69715,-1.56933 -2.48928,0.26164 -6.72605,-3.54749 -7.01609,-6.30703 -0.20043,-1.90691 -0.9329,-2.97324 -2.22369,-3.23842 -1.05904,-0.21754 -4.38642,-2.81637 -7.39409,-5.77437 -3.00778,-2.95798 -5.82584,-5.36428 -6.26127,-5.34747 -0.43543,0.0168 -1.91164,1.03922 -3.28034,2.27331 -1.82224,1.64303 -4.48886,2.54696 -9.95948,3.37595 -8.5414,1.29432 -9.79838,1.97551 -9.46755,5.12317 0.33718,3.20806 -0.14632,3.47632 -5.15583,2.87106 -4.72241,-0.57056 -5.82432,-2.10577 -6.56358,-9.13938 -0.1619,-1.5403 -0.74256,-3.0163 -1.28939,-3.27967 -0.54682,-0.26337 -2.71553,-2.88969 -4.82,-5.83673 -2.10448,-2.94705 -4.28618,-5.60319 -4.84864,-5.90248 -0.57195,-0.30439 -0.92454,-2.35892 -0.80036,-4.66258 0.20856,-3.86864 0.0219,-4.19572 -3.07407,-5.40555 -1.81268,-0.70835 -6.37323,-2.08762 -10.13369,-3.06495 -5.71032,-1.48411 -7.97927,-2.78925 -13.76646,-7.91885 -7.41426,-6.57187 -13.85907,-9.59115 -19.37118,-9.07566 -1.88082,0.17589 -7.53814,-0.1267 -12.57271,-0.67189 -21.9747,-2.37961 -32.54774,-3.29633 -37.29903,-2.81191 z m 0.93482,1.8126 c 1.37737,-0.31949 12.32673,0.45272 24.33219,1.71599 12.00554,1.26328 23.23111,2.14988 24.94606,1.96963 5.01289,-0.52688 9.79083,1.77263 17.24311,8.29775 6.06868,5.31368 8.23713,6.50354 16.61828,9.11755 10.27985,3.20613 11.78592,3.94489 9.89356,4.85376 -1.83169,0.8797 -0.97464,4.96229 1.53755,7.32275 5.75193,5.40443 10.22587,12.83902 11.61203,19.29818 1.21517,5.66183 1.6196,6.40141 3.1817,5.81255 0.9844,-0.3711 3.50262,-0.47324 5.59675,-0.22689 4.45132,0.52368 6.0192,-0.63973 6.0624,-4.50406 0.0293,-2.61808 0.1976,-2.70054 7.9546,-3.8035 5.7435,-0.81667 8.55792,-1.69586 10.222,-3.19537 l 2.29623,-2.06972 4.98667,4.84318 c 2.74274,2.6636 5.81776,5.01391 6.83333,5.22253 1.01557,0.20862 1.94064,1.27338 2.05553,2.36646 0.11488,1.09307 0.762,2.80335 1.4383,3.80016 1.3081,1.92806 8.46364,5.08065 10.94079,4.82029 0.81511,-0.0857 1.97358,0.5383 2.57309,1.38707 0.85384,1.20896 2.00507,1.3211 5.3176,0.51731 2.85159,-0.69196 5.27354,-0.62898 7.43775,0.19234 4.55085,1.72697 8.01819,4.49122 7.59868,6.05727 -0.19691,0.73539 1.0111,3.45419 2.68333,6.04167 l 3.03957,4.70415 12.45452,0.96712 c 10.28771,0.79938 13.0671,1.39313 15.96753,3.41213 3.26648,2.2738 6.34203,3.10239 14.39998,3.87539 3.04481,0.2921 3.35296,-0.007 6.25774,-6.04661 l 3.05584,-6.35227 5.16971,-0.0308 c 2.84332,-0.0167 7.16404,0.29085 9.60255,0.6836 l 4.43485,0.71417 -0.10097,5.13045 c -0.11838,6.04693 0.4525,6.57743 7.97787,7.42355 3.86907,0.43503 6.0881,0.21282 8.3006,-0.82922 3.84383,-1.81028 13.68757,-1.86753 15.88007,-0.0921 1.38326,1.12011 1.50799,1.83332 0.73135,4.15529 -0.53062,1.58608 -0.52198,3.13866 0.0184,3.57627 0.52523,0.42525 3.93641,0.73806 7.58106,0.69574 7.54397,-0.0876 7.7801,0.16723 8.78855,9.47506 0.43077,3.97793 1.29823,6.32852 3.18267,8.62472 1.42476,1.73599 5.52101,6.96144 9.10356,11.61203 5.27177,6.84399 7.52602,8.92387 11.82466,10.91362 4.54204,2.10244 5.61486,3.1542 7.40942,7.2653 1.18812,2.72193 2.85308,9.96144 3.83783,16.69027 0.95964,6.55691 3.06745,15.79995 4.70477,20.62118 1.63208,4.80573 3.12926,10.17534 3.32601,11.93255 0.24789,2.215 1.03469,3.47102 2.56511,4.09415 2.19788,0.89491 2.19753,0.9116 -0.17371,3.97155 -1.95562,2.52362 -2.31418,4.11847 -2.00454,8.91854 0.24355,3.77616 -0.37338,8.23568 -1.74183,12.59482 -1.99391,6.3515 -2.01294,6.97403 -0.32044,10.59151 1.68888,3.60975 2.00769,3.79981 5.24457,3.14874 1.89553,-0.38127 4.67972,-1.46574 6.18629,-2.40985 1.50656,-0.94411 4.34811,-1.8914 6.31434,-2.10711 5.25533,-0.57545 14.55366,-4.03775 16.41021,-6.11014 1.83332,-2.04652 5.87453,-2.81595 6.04939,-1.15231 0.10903,1.03738 2.60931,0.50051 6.20162,-1.32936 0.85772,-0.43692 2.9544,0.51585 5.27537,2.39529 2.30701,1.86816 5.31266,3.23598 7.4974,3.41274 2.00616,0.16231 3.68741,0.665 3.73478,1.11572 0.0474,0.45071 1.66485,1.20944 3.59436,1.68626 2.92352,0.7224 3.67177,1.47388 4.49026,4.51042 0.97867,3.63068 2.52417,4.70725 6.20241,4.32065 1.06414,-0.11184 4.09729,1.6794 6.73998,3.97939 l 4.80315,4.181 4.17403,-2.21602 c 6.57008,-3.48908 11.23964,-4.0815 15.65156,-1.98677 6.33289,3.00679 6.7023,3.94607 3.13964,7.97332 -2.8425,3.21323 -3.0157,3.80964 -1.82979,6.33927 0.72008,1.5358 1.42825,4.36367 1.57179,6.28419 0.23866,3.18916 -0.19911,3.80167 -5.04106,7.06564 -2.91591,1.96556 -6.15145,4.52165 -7.18965,5.68108 -2.80455,3.13225 -8.09004,16.67849 -8.39319,21.51079 -0.14549,2.31905 -1.52802,6.60052 -3.07315,9.51398 l -2.80937,5.29729 2.64085,1.35834 c 1.45186,0.74725 3.90294,3.0858 5.44791,5.19533 l 2.80883,3.83483 -1.05254,8.01722 c -0.57898,4.40918 -0.86346,11.22626 -0.63285,15.14914 l 0.4178,7.13212 -4.21628,2.6368 c -2.62177,1.63963 -5.13533,4.37679 -6.64352,7.23407 -1.33446,2.52806 -4.21953,6.26897 -6.41045,8.3113 -4.1637,3.88132 -6.48415,8.71888 -8.61656,17.9659 -0.69804,3.02677 -2.03482,6.71996 -2.9709,8.20706 -1.19889,1.90454 -1.66047,5.04003 -1.56181,10.60809 0.14942,8.437 0.37609,8.0421 -6.32166,11.04356 -0.79224,0.35501 -2.3064,2.84933 -3.36471,5.54419 -1.65654,4.2183 -1.72427,5.32466 -0.48241,7.94747 0.79339,1.67557 1.3258,4.26805 1.18292,5.76143 -0.15899,1.66162 0.55215,3.80976 1.83281,5.53601 2.32349,3.13181 2.14069,4.40225 -1.77158,12.33086 -1.77607,3.59957 -2.64866,4.35148 -5.38827,4.63942 -1.79819,0.189 -3.72361,0.90486 -4.27906,1.59077 -0.7532,0.9301 -2.10411,0.93673 -5.31326,0.0282 -4.1573,-1.177 -4.31415,-1.15012 -4.61017,0.79485 -0.18848,1.23841 -1.30358,2.23725 -2.89897,2.59458 -3.39521,0.76051 -3.90376,4.22689 -0.57427,3.91545 2.25938,-0.21133 2.25453,-0.1714 -0.24259,1.7655 -2.67673,2.07624 -3.11502,3.99835 -1.13096,4.95396 0.8168,0.39341 0.78973,0.86107 -0.089,1.5451 -1.00428,0.78179 -0.9765,1.35033 0.13788,2.78798 1.13275,1.46131 1.13244,1.94145 10e-4,2.51754 -1.85833,0.9466 -7.05907,0.56542 -11.79339,-0.86182 -3.16186,-0.95321 -5.04273,-0.84769 -10.6407,0.59403 -9.76276,2.51433 -12.51327,4.57555 -22.75959,17.05841 l -9.15913,11.15914 1.14194,5.91303 c 1.00981,5.23088 1.366,5.84837 3.08469,5.3573 1.38678,-0.39625 0.85327,0.66682 -1.86596,3.7154 -2.93304,3.28835 -3.85137,5.23611 -3.99027,8.46739 -0.15442,3.59353 0.13807,4.32625 2.03836,5.10002 1.22063,0.49697 2.31337,1.79276 2.42756,2.87921 0.11772,1.12002 1.29105,2.33793 2.7092,2.8123 1.88556,0.63071 2.58437,1.6245 2.83783,4.03603 0.28952,2.75455 -0.32678,3.73877 -4.43397,7.08627 -8.43797,6.87718 -11.61506,10.51364 -11.35371,13.0002 0.10723,1.0202 -0.86012,2.98765 -2.1505,4.37177 -1.40236,1.50417 -2.09092,3.19759 -1.71015,4.20767 0.46012,1.22075 -0.33572,2.23784 -2.86696,3.66547 -3.1807,1.79401 -3.59275,2.57286 -4.46269,8.43849 -0.52709,3.55398 -0.9982,7.37088 -1.04691,8.48206 -0.0614,1.40615 -0.9806,2.2164 -3.02702,2.66499 -1.617,0.35449 -3.5511,1.29679 -4.29671,2.09538 -2.34564,2.51237 -10.48129,7.24996 -18.9505,11.0335 -12.11743,5.41337 -15.63615,7.8764 -18.78834,13.15512 -1.56664,2.62359 -3.80769,5.5551 -4.98125,6.51339 -1.17356,0.95828 -2.05249,2.52041 -1.95236,3.47311 0.21595,2.05461 -7.00042,11.00492 -9.04665,11.21998 -3.34,0.35105 -3.41377,2.46082 -0.29174,8.30451 1.92288,3.59948 2.75986,6.14231 2.23558,6.78984 -0.46112,0.56934 -3.87649,1.74448 -7.58882,2.61224 -7.77639,1.81777 -8.78818,2.29094 -15.70758,7.33834 -2.81321,2.05214 -7.29496,4.51174 -9.95986,5.46556 -2.66489,0.95383 -5.41251,2.29443 -6.10687,2.97888 -1.85968,1.83314 -11.03537,8.30576 -16.7217,11.7969 -2.78314,1.70867 -7.63604,3.5778 -11.0663,4.26212 -8.06353,1.60863 -9.72145,4.58833 -4.41202,7.93041 1.53016,0.96317 2.53335,2.26897 2.22935,2.90004 -0.304,0.63109 0.68226,2.46754 2.19073,4.08243 1.50847,1.6149 3.10651,3.92422 3.55194,5.13145 0.92054,2.49502 -0.89243,5.35504 -3.57297,5.63677 -2.87825,0.30252 -15.08501,6.26265 -19.39935,9.47226 -2.2162,1.64874 -7.01332,6.43846 -10.66067,10.64335 -5.84478,6.73825 -7.1695,7.75461 -11.16561,8.56757 -2.49373,0.50732 -8.07748,2.99317 -12.4085,5.52457 -7.56695,4.42278 -8.00449,4.55726 -11.20324,3.42616 -3.00796,-1.06365 -6.68635,-3.83268 -11.91068,-8.96623 -1.02311,-1.00534 -2.62673,-4.6602 -3.56373,-8.12119 -1.05476,-3.89594 -2.53087,-6.96137 -3.87432,-8.04927 -1.9173,-1.55261 -2.59571,-1.57784 -5.82776,-0.21428 -2.27196,0.95852 -4.14203,2.64851 -4.93755,4.46244 -1.40296,3.19901 -8.65842,7.21606 -14.06027,7.78382 -2.70852,0.28468 -3.4002,1.04047 -5.60201,6.11909 -1.38165,3.18688 -2.98425,5.84395 -3.56051,5.90452 -0.57627,0.0606 -2.40974,1.84444 -4.07485,3.96327 -3.64139,4.6336 -10.578,9.27548 -16.98842,11.37128 -4.10866,1.34327 -5.35149,1.32289 -9.8425,-0.16349 -4.59913,-1.52216 -6.92093,-1.53347 -22.06536,-0.10426 -21.49769,2.02879 -34.73356,2.37842 -40.59282,1.07123 -4.52456,-1.00941 -8.58412,-0.51702 -21.11555,2.56106 l -4.656,1.14333 -0.32114,-3.05543 c -0.21347,-2.03112 -1.1176,-3.49875 -2.69454,-4.37317 -4.52719,-2.51033 -7.64541,-0.96729 -9.81015,4.85281 -0.45881,1.23356 -1.92599,2.51024 -3.26019,2.83875 -1.3342,0.3285 -3.80169,1.88631 -5.48269,3.4612 -4.05643,3.80038 -10.64577,7.07762 -23.60714,11.74093 -5.88595,2.11768 -11.20573,4.24021 -11.82174,4.71662 -0.61601,0.47641 -0.9588,2.40641 -0.76097,4.28858 0.30297,2.88262 0.007,3.46234 -1.87673,3.6694 -1.23008,0.13537 -3.78076,0.62133 -5.66807,1.08082 -5.44645,1.32601 -10.81305,-1.45245 -9.90684,-5.12927 0.20447,-0.82958 -3.20756,-0.92361 -11.48255,-0.31515 -10.88641,0.80048 -12.09062,0.69142 -16.01767,-1.44101 -2.33554,-1.26822 -5.24537,-2.20009 -6.46683,-2.07171 -1.22146,0.12838 -3.8916,-0.94841 -5.93302,-2.39294 -4.16381,-2.94633 -9.81687,-3.05679 -12.10077,-0.23642 -1.77616,2.19337 -6.07897,2.55896 -7.43947,0.63266 -0.73274,-1.03746 -0.66307,-3.34001 0.21498,-7.03562 0.7179,-3.02162 1.06092,-7.82507 0.76136,-10.67517 -0.41262,-3.92576 -0.0873,-5.78565 1.34421,-7.67081 1.79656,-2.36588 1.79616,-2.60405 -0.0295,-4.83983 -1.68198,-2.05983 -1.78464,-2.70857 -0.82458,-5.22957 2.41641,-6.34529 1.42999,-13.88783 -2.49758,-19.09157 -3.75831,-4.97948 -5.96088,-9.64348 -5.13787,-10.878 1.49095,-2.23641 -1.2624,-11.57599 -3.34802,-11.35678 -0.61694,0.0648 -2.4651,-0.92137 -4.10516,-2.19229 -1.64005,-1.27091 -4.50555,-2.4687 -6.36777,-2.66146 -2.99135,-0.30964 -3.38406,-0.68511 -3.37149,-3.22777 0.0246,-4.9752 -1.36119,-7.00922 -7.59352,-11.12854 -7.39524,-4.88796 -10.12269,-7.60606 -11.23713,-11.20908 -0.69054,-2.23254 -0.43338,-2.99338 1.34568,-3.99457 1.20838,-0.68004 2.65189,-2.52514 3.20816,-4.1 0.55625,-1.57484 1.77774,-3.38438 2.71568,-4.02073 1.31832,-0.89441 1.59858,-2.45804 1.23584,-6.88958 -0.28403,-3.47 0.0319,-6.34872 0.79844,-7.2953 0.9366,-1.15659 0.94981,-2.19053 0.0501,-3.97034 -1.41852,-2.80617 -1.3499,-8.41883 0.11174,-9.08293 0.55448,-0.25193 0.92387,-1.26253 0.82066,-2.24456 -0.18442,-1.75457 -1.47219,-2.30256 -9.86854,-4.20438 -4.47681,-1.01402 -5.7472,-2.53724 -4.13448,-4.95631 1.11664,-1.67494 1.01654,-2.33413 -3.47231,-23.22717 -1.93494,-9.00604 -2.15254,-9.45243 -6.10421,-12.43003 -3.73628,-2.81531 -4.358501,-3.92817 -7.017022,-12.57564 l -2.915675,-9.48549 2.050905,-5.50625 c 1.127957,-3.02781 2.141095,-7.32369 2.250692,-9.54733 0.109587,-2.22364 0.725794,-5.78016 1.37083,-7.90339 1.04546,-3.44129 0.98476,-4.09116 -0.557848,-5.98031 -2.209699,-2.70609 -1.403312,-6.26656 1.851968,-8.18372 1.3172,-0.77576 2.35901,-1.75279 2.31517,-2.1699 -0.0438,-0.41711 1.22087,-2.36352 2.80938,-4.32517 1.75298,-2.16477 2.4003,-3.67349 1.64674,-3.83965 -1.60172,-0.35319 -1.19784,-6.03437 0.61331,-8.627 1.08837,-1.558 1.06297,-2.3542 -0.13529,-4.3888 -1.85831,-3.15537 -1.56489,-3.45382 2.37512,-2.42169 3.69055,0.96678 6.22036,-0.74037 5.88127,-3.96657 -0.10794,-1.027 0.56226,-2.80328 1.48992,-3.94885 1.29438,-1.59843 1.44916,-2.83542 0.66504,-5.31347 -0.89212,-2.81934 -1.73857,-3.41886 -6.67537,-4.72853 -5.08894,-1.35004 -5.73992,-1.83387 -6.50902,-4.84617 -0.90992,-3.56391 -6.318809,-7.37011 -9.933528,-6.99019 -1.013089,0.10648 -2.824045,-0.60217 -4.024493,-1.57428 -1.20046,-0.97211 -4.012878,-1.86595 -6.249694,-1.98651 -2.236825,-0.12056 -6.302846,-1.39597 -9.03526,-2.83477 -8.306174,-4.37376 -9.203931,-4.65358 -13.506948,-4.21671 -2.789346,0.28322 -6.994726,-0.60202 -12.79883,-2.69252 -4.75436,-1.71242 -9.274082,-3.04729 -10.044767,-2.96629 -0.770695,0.081 -2.174874,1.37685 -3.120451,2.87906 l -1.719955,2.73186 -2.656013,-2.32495 c -1.460797,-1.27778 -2.770535,-3.41455 -2.910802,-4.7491 -0.140267,-1.33455 -1.998987,-4.27344 -4.131158,-6.53169 -2.132183,-2.25826 -4.295268,-5.09017 -4.807052,-6.29176 -0.511784,-1.20159 -2.510463,-4.82798 -4.440886,-8.05846 -1.930431,-3.23047 -3.565202,-6.39751 -3.632496,-7.03777 -0.06729,-0.64024 -1.754129,-2.69802 -3.7487139,-4.57462 -1.9945846,-1.8766 -4.4760763,-4.40986 -5.5149965,-5.62818 -1.1380792,-1.33461 -4.9133137,-3.02843 -9.4976349,-4.26301 -6.0877777,-1.63944 -12.5723347,-3.99395 -15.3379037,-5.56787 -0.187811,-0.10688 0.147488,-1.22177 0.745041,-2.47817 0.946653,-1.9904 0.817439,-2.44259 -0.995694,-3.51283 -1.811729,-1.06941 -1.863388,-1.25153 -0.399094,-1.40543 2.449955,-0.2575 1.789029,-2.76013 -1.230226,-4.66061 l -2.611963,-1.64419 4.176564,-2.60317 c 3.248997,-2.02329 4.121901,-3.14182 3.923093,-5.03335 -0.156836,-1.49219 -0.989063,-2.58212 -2.15439,-2.82151 -2.893525,-0.59442 -4.830051,-4.45507 -3.22735,-6.43423 0.710605,-0.87753 1.274227,-4.25323 1.251981,-7.50204 -0.02224,-3.24882 1.008859,-9.88571 2.291069,-14.74998 l 2.330425,-8.84478 9.0130559,-4.14058 c 4.9570758,-2.27727 12.9376438,-5.54595 17.7342693,-7.26463 4.7966258,-1.71868 9.1523288,-3.79369 9.6803928,-4.61135 0.528055,-0.81765 1.416648,-1.5354 1.973103,-1.59389 0.556455,-0.0585 1.521193,-0.87085 2.143457,-1.80424 0.638565,-0.95786 2.002443,-1.56394 3.133403,-1.3918 1.191924,0.18144 3.166632,-0.79073 4.871599,-2.39932 2.950861,-2.78407 13.3659,-6.94787 20.345188,-8.1341 2.173294,-0.36939 4.72803,-0.81672 5.677261,-0.99341 0.949225,-0.17675 1.660906,-0.93939 1.581376,-1.69607 -0.178793,-1.7011 3.174731,-3.08567 4.626466,-1.91008 0.687896,0.55705 2.087512,0.19101 3.948746,-1.03365 4.003892,-2.63451 13.684014,-3.5197 16.897935,-1.5443 2.086619,1.2825 2.365741,1.94436 1.767632,4.20545 -0.608897,2.30184 -0.114562,3.35253 3.487997,7.40055 4.576223,5.14209 4.020721,5.08919 13.679555,1.3372 4.67605,-1.81644 6.31482,-3.16119 10.07495,-8.25655 2.47002,-3.34712 5.22994,-6.58555 6.13276,-7.19806 1.12793,-0.76525 4.74838,-0.66541 11.56966,0.32169 5.45995,0.7901 10.30136,1.14779 10.75911,0.79378 0.45774,-0.35401 0.55979,-3.23167 0.22734,-6.39473 l -0.60451,-5.75152 4.02398,-1.68179 c 2.21319,-0.92482 4.98132,-2.46237 6.15108,-3.41755 2.10409,-1.71813 4.77148,-1.95782 15.85005,-1.42434 3.85528,0.18565 4.25652,-0.047 6.53266,-3.78562 1.45188,-2.3847 4.55377,-5.26306 7.72828,-7.17133 4.72238,-2.83874 6.55455,-3.32467 16.73462,-4.4435 22.44071,-2.46626 21.45851,-2.17273 26.14554,-7.80697 3.57298,-4.29506 4.62054,-4.9899 7.22103,-4.78493 2.74151,0.21608 3.27566,-0.23434 5.41244,-4.55948 1.32916,-2.69044 2.07211,-5.5929 1.68969,-6.60735 -0.62432,-1.65616 0.24836,-1.97544 10.30447,-3.75588 6.04269,-1.06986 11.317,-1.90069 11.7208,-1.84661 0.4038,0.0541 3.78443,-1.41033 7.51328,-3.25632 6.14372,-3.04149 7.17874,-3.28228 11.03156,-2.55578 4.69877,0.88603 5.26633,0.4221 8.27085,-6.75505 1.26459,-3.02084 1.77122,-3.31354 6.63602,-3.82988 2.89681,-0.30754 6.7859,-1.17822 8.64192,-1.93541 8.6517,-3.52957 12.12753,-9.5931 11.7298,-11.83199 -0.39773,-2.23889 -1.81935,-0.99134 -2.60912,-1.25502 -0.9929,-0.33148 -1.78617,-2.5065 -2.38208,-3.24045 -2.33973,-2.88173 -3.21343,-5.30875 -3.6473,-10.52166 -0.45628,-5.48214 -0.88461,-6.58052 -3.43389,-8.81041 -2.3481,-2.05391 -4.28951,-2.60927 -10.02701,-2.87193 -6.7733,-0.31007 -7.23651,-0.49693 -9.63141,-3.89151 -1.38375,-1.96135 -4.67276,-4.93262 -7.30829,-6.60232 -2.63554,-1.66969 -7.29246,-5.99476 -10.35043,-9.61137 -5.17724,-6.12304 -5.54669,-6.88253 -5.36366,-11.02709 0.37155,-8.41424 -1.65301,-10.16565 -14.1798,-12.26273 -7.47291,-1.25102 -14.31697,-6.11008 -17.91606,-12.72037 l -2.58469,-4.74803 2.94083,-0.30909 c 1.61807,-0.17007 3.67829,-0.78577 4.57731,-1.36877 0.89903,-0.583 2.86056,-1.80181 4.35794,-2.70865 1.49736,-0.90683 3.24898,-3.13885 3.89353,-4.95954 1.11745,-3.15647 0.96245,-3.70184 -3.31453,-11.72951 l -4.48469,-8.41915 2.88739,-3.04113 c 2.12186,-2.23521 3.98559,-3.16414 7.02772,-3.50379 3.29213,-0.36753 4.65121,-1.13392 6.64133,-3.74205 1.51227,-1.9819 3.50872,-3.3853 5.04556,-3.54683 1.60073,-0.16825 3.65746,-1.68849 5.55078,-4.10269 1.84474,-2.35226 3.98737,-3.95609 5.5422,-4.14696 1.39435,-0.1712 7.4026,-3.42795 13.34978,-7.23782 9.58737,-6.14184 10.87865,-7.30566 11.39998,-10.26151 0.32339,-1.83355 1.80657,-4.4526 3.29624,-5.82175 5.50623,-5.06082 9.21038,-10.47762 14.14071,-20.67732 0.45425,-0.93975 6.18289,-4.30561 12.72917,-7.48091 9.36388,-4.54196 13.29212,-5.93396 18.41921,-6.52161 9.30867,-1.06694 19.14674,-4.19469 19.31357,-6.14034 0.284,-3.31231 -8.31306,-20.75704 -13.35532,-27.10207 l -5.16044,-6.49617 2.50374,-0.58131 z"
       id="path4168"
       inkscape:connector-curvature="0"
       sodipodi:nodetypes="ccssscccsssssssscccsssscssssssssssscsssssssscccssssscccssssssccssscscsssssssscssssssssssssssccccssssscsssssssccscsssssssssscsssscscsssssscssssssssscssssssssscssssssscssssssscsssssccssssscscccscsccsscsccscscsscsscccsccsssccssssscssssccscccssssccsccccccsccsssccccssssssscscccsscsccssscssscssssssscscsscccsccccscsccscssscccssssssscsssssscccsssscsccscscccsssccscccccssccccccscsccscccscsscsscssssccssssccsscccssccccsscccccccscsccscscsccsssscssscccsscccssccssssscccsccssssssccsssscsscscssssssssssssscsssssccsssssssscssssssssssssssscssssssssssssssssscccsssscssssssssssssssssscccsssssssscssscccssssccssscscsscssssssssssssccsssssssssscssscszssssssssssccsssscccsssscssssssscccc" />
    <g
       id="g4395"
       transform="translate(1.767767,0.75761441)"
       style="stroke-width:2;stroke-miterlimit:4;stroke-dasharray:none">
      <path
         inkscape:connector-curvature="0"
         inkscape:original-d="m 373.45993,831.06809 13.88959,13.8896"
         inkscape:path-effect="#path-effect4389"
         id="path4387"
         d="m 373.45993,831.06809 13.88959,13.8896"
         style="fill:none;fill-rule:evenodd;stroke:#000000;stroke-width:2;stroke-linecap:round;stroke-linejoin:round;stroke-miterlimit:4;stroke-dasharray:none;stroke-opacity:1" />
      <path
         style="fill:none;fill-rule:evenodd;stroke:#000000;stroke-width:2;stroke-linecap:round;stroke-linejoin:round;stroke-miterlimit:4;stroke-dasharray:none;stroke-opacity:1"
         d="m 387.34952,831.06809 -13.88959,13.8896"
         id="path4391"
         inkscape:path-effect="#path-effect4393"
         inkscape:original-d="m 387.34952,831.06809 -13.88959,13.8896"
         inkscape:connector-curvature="0" />
    </g>
    <text
       id="text4399"
       y="733.59363"
       x="755.83783"
       style="font-style:normal;font-weight:normal;line-height:0%;font-family:sans-serif;letter-spacing:0px;word-spacing:0px;fill:#000000;fill-opacity:1;stroke:none;stroke-width:1px;stroke-linecap:butt;stroke-linejoin:miter;stroke-opacity:1"
       xml:space="preserve"><tspan
         style="font-style:normal;font-variant:normal;font-weight:normal;font-stretch:normal;font-size:25.62470436px;line-height:1.25;font-family:'Gentium Plus Compact';-inkscape-font-specification:'Gentium Plus Compact'"
         y="733.59363"
         x="755.83783"
         id="tspan4401"
         sodipodi:role="line">Beroun</tspan></text>
    <use
       x="0"
       y="0"
       xlink:href="#use4229"
       id="use4403"
       transform="translate(383.85797,-177.78685)"
       width="100%"
       height="100%" />
  </g>
</svg>
